<svg xmlns="http://www.w3.org/2000/svg" viewBox="0 0 176.94 78.53">
  <defs>
    <style>
      @media only screen {
        .fill-color { 
          fill: #ffffff; 
        }
      }
      @media print { 
        .fill-color { 
          fill: #8C1515; 
        } 
      }
    </style>
  </defs>
  <title>Stanford University Signature - Stacked</title>
    <g id="SUSig_Stack">
      <g id="Stanford">
        <path class="fill-color" d="M174.26,33.75c-.4-.57-.45-2.32-.45-5.15v-19c0-3.06,0-7.39.2-9.31l-.41-.23a14.48,14.48,0,0,1-2.53.61,34.4,34.4,0,0,1-5.47.65V2.41c1.75.13,2.22.36,2.55.84s.46,2.16.46,5.06v4.95a22.9,22.9,0,0,0-4.54-.45c-5.11,0-9.16,2.42-11.12,6.64a15.65,15.65,0,0,0-1.24,6.27c0,6.86,4.12,11.29,10.51,11.29a11,11,0,0,0,6.49-2.19v2l.64.22a10,10,0,0,1,2.58-.63,32.29,32.29,0,0,1,5-.48V34.64C175.48,34.64,174.62,34.28,174.26,33.75Zm-5.64-1a6.82,6.82,0,0,1-3.82.94c-6.74,0-7.54-5.92-7.54-8.6,0-6.38,2.2-9.48,6.73-9.48a6.48,6.48,0,0,1,4.64,1.56Z"/>
        <path class="fill-color" d="M132.88,14.19a22.55,22.55,0,0,0,5.09-.42,11.41,11.41,0,0,0,2.76-.78l.42.21v2a7.7,7.7,0,0,1,5.37-2.16,5.6,5.6,0,0,1,4.05,1.44v.73l-2,3.59h-1a4.17,4.17,0,0,0-3.87-2.1,4.41,4.41,0,0,0-2.55.74V29.19c0,3.06.1,4.51.5,5.11.65,1,2.58,1.08,3.69,1v1.29c-1.6-.09-4.35-.22-6.33-.22a60.49,60.49,0,0,0-6.32.25V35.49a3.32,3.32,0,0,0,2.53-1c.72-.81.76-2.72.76-6.68V21.17c0-2.88,0-4.12-.46-4.72s-1.22-.83-2.72-.85Z"/>
        <path class="fill-color" d="M119.2,12.77c-8.73,0-11.84,6.7-11.84,12.47,0,7.4,4.25,11.83,11.35,11.83,8.72,0,11.82-6.73,11.82-12.47C130.53,17.18,126.3,12.77,119.2,12.77Zm3,20.55a4.88,4.88,0,0,1-3.28,1.05c-5.73,0-6-7.82-6-9.39,0-4.06.95-6.9,2.81-8.47a4.93,4.93,0,0,1,3.3-1.06c5.72,0,6,7.82,6,9.38C125,28.89,124.07,31.75,122.19,33.32Z"/>
        <path class="fill-color" d="M91.94,35.54a3.43,3.43,0,0,0,2.53-1c.72-.81.76-2.77.76-6.73V16.28h-3V15a12.86,12.86,0,0,0,3-1.57,40.68,40.68,0,0,1,.35-6.16c.9-4.79,4-7.24,9.32-7.24a9.36,9.36,0,0,1,5.87,1.93l.07.49-2.31,3.2H108c-.79-1.93-2-3-4.05-3a3.5,3.5,0,0,0-2.35.84c-1,1-1.17,2.5-1.17,5.47v4.5h5.19v2.89H100.4V29.19c0,3.06.11,4.56.51,5.16.65,1,2.69,1.09,3.7,1.05v1.23c-1.71-.1-4.36-.22-6.35-.22a60.91,60.91,0,0,0-6.32.25Z"/>
        <path class="fill-color" d="M63,14.27a20.76,20.76,0,0,0,4.7-.33,8.92,8.92,0,0,0,3.1-1l.46.28v1.85A11.45,11.45,0,0,1,78,12.81c4.19,0,6.93,2,7.71,5.52a24.23,24.23,0,0,1,.3,4.16v6.79c0,3.84.15,4.91.87,5.6a3.69,3.69,0,0,0,2.26.67v1.09c-1.49-.07-4.15-.22-5.76-.22-2.13,0-4.53.1-5.82.25V35.59a4,4,0,0,0,2.35-.85c.67-.67.79-2,.89-4.91,0-.86.05-2.69.05-4a47.29,47.29,0,0,0-.2-5.32c-.34-3-1.93-4.41-4.93-4.41a9,9,0,0,0-4.36,1V29.28c0,3.84.15,4.91.89,5.6a3.71,3.71,0,0,0,2.24.67v1.09c-1.93-.1-4.24-.22-5.72-.22a47,47,0,0,0-5.86.25V35.56a3.47,3.47,0,0,0,2.53-1c.71-.8.75-2.79.75-6.74V21.18c0-2.88-.06-4.1-.46-4.72s-1.12-.87-2.72-.85Z"/>
        <path class="fill-color" d="M60.2,33c-.48.39-.59.54-1.16.54-1.37,0-1.63-1.27-1.63-2.91,0-.66,0-1.72.06-3,0-1.8.1-4,.1-6,0-2.27-.09-4.46-1.07-6-1.29-2-3.42-2.91-6.66-2.91-4.57,0-7.21,2.62-8,5.25l1.17.69a5.1,5.1,0,0,1,4.7-2.89A4.19,4.19,0,0,1,52,18.44,6.69,6.69,0,0,1,52.29,21v.75c-2.86.89-3.75,1.07-7.89,2.59a6.21,6.21,0,0,0-4.47,6.26c0,1.48.48,6.25,6.8,6.25a7.86,7.86,0,0,0,5.82-2.4,3.38,3.38,0,0,0,3.55,2.36c2.27,0,3.63-1.32,4.86-2.93Zm-7.91-.51a6.31,6.31,0,0,1-3.67,1.08c-3,0-3.47-2.12-3.47-3.37a3.84,3.84,0,0,1,2-3.65,25.7,25.7,0,0,1,5.1-1.94Z"/>
        <path class="fill-color" d="M37.58,34.34A7.69,7.69,0,0,1,31.28,37c-3.59,0-5.6-1.28-6.48-4.16a20.11,20.11,0,0,1-.36-4.74c0-3.72,0-6.71.08-10.16V16.31H21.46V15.4a11,11,0,0,0,2.92-1.61A17.13,17.13,0,0,0,28.71,8.2h1v5.22h7.9v2.89h-7.9V28.53c0,3.65.66,5.73,4.11,5.73a6.81,6.81,0,0,0,3.34-.87Z"/>
        <path class="fill-color" d="M.17,35.61c0-2.34,0-4.32-.17-6.72H1.38a5,5,0,0,0,1.07,3.31C3.44,33.3,5.73,34,7.85,34c4.43,0,6.49-1.68,6.49-5.28,0-3.09-1.91-4.37-4.55-6.15l-.41-.28L6.6,20.41C2.73,17.84.75,15.79.75,11.69c0-2,.77-8.55,10.51-8.55a48.32,48.32,0,0,1,7.64.63c0,.31-.05,1.81-.05,3.07,0,1.46,0,1.95.06,3.74H17.73A4.5,4.5,0,0,0,16.57,7.3c-.94-.94-3-1.37-5.21-1.37-5.17,0-5.78,2.65-5.78,4.64,0,2.75,1.4,3.67,4.46,5.7l3.54,2.33c3,2,5.83,3.89,5.83,8.88,0,8.44-7.86,9.34-11.24,9.34A24.26,24.26,0,0,1,.17,35.61Z"/>
      </g>
      <g id="University">
        <path class="fill-color" d="M148.45,56.18a2.12,2.12,0,0,0-1.2.38.89.89,0,0,0-.32.72,4.49,4.49,0,0,0,.39,1.46l2.18,5.79c.33.87.56,1.58.72,2.09l2.66-7.92a4.15,4.15,0,0,0,.37-1.47.93.93,0,0,0-.26-.58,2,2,0,0,0-1.24-.43v-.85c.32,0,1,0,1.34.07s.94.07,1.45.07c1,0,2.36-.09,3-.15v.87c-.4.05-1.33-.07-2.05,2.18l-5.69,15.2c-.83,2.19-1.86,4.92-5.85,4.92a4.84,4.84,0,0,1-3.56-1.19v-.41l1.4-1.71h.4a2.24,2.24,0,0,0,2.26,1.31c1.81,0,2.6-1.55,3.84-4.83l.34-.9-4.84-12.38c0-.09-.1-.26-.18-.46s-.4-.92-.4-.92a1.44,1.44,0,0,0-1.45-.81v-.88c.92.07,2.49.15,3.31.15.54,0,1.35,0,2.06-.08l1.37-.06Z"/>
        <path class="fill-color" d="M139.94,68.74a4.9,4.9,0,0,1-4,1.7c-2.3,0-3.57-.81-4.13-2.65a12.71,12.71,0,0,1-.23-3c0-2.38,0-4.28,0-6.48v-1h-2v-.58a7.13,7.13,0,0,0,1.86-1,11.08,11.08,0,0,0,2.76-3.57h.65V55.4h5v1.85h-5V65c0,2.33.42,3.66,2.62,3.66a4.31,4.31,0,0,0,2.14-.56Z"/>
        <path class="fill-color" d="M120.64,69.54a2.4,2.4,0,0,0,1.72-.62c.46-.52.49-1.73.49-4.29V60.39c0-1.83,0-2.74-.3-3.14s-.64-.48-1.7-.56v-.85a13.56,13.56,0,0,0,3.41-.29,6,6,0,0,0,1.64-.52l.33.33c-.09,1-.13,3.11-.13,5.88v4.34c0,2,.06,2.86.33,3.25a2.3,2.3,0,0,0,1.82.71v.71c-.89-.05-2.42-.14-3.74-.14-1.48,0-3.06.06-3.87.15Z"/>
        <path class="fill-color" d="M124.32,52.48a1.79,1.79,0,0,1-1.94-1.85,1.85,1.85,0,0,1,2-1.91,1.8,1.8,0,0,1,1.94,1.85A1.85,1.85,0,0,1,124.32,52.48Z"/>
        <path class="fill-color" d="M108.54,69.71a38.68,38.68,0,0,0-.19-3.92h1a3,3,0,0,0,.64,1.95,3,3,0,0,0,2.62,1h.18c1.64,0,2.48-.69,2.48-2.05,0-1.12-.71-1.56-1.89-2.31L111.23,63a4.29,4.29,0,0,1-2.41-3.77,3.75,3.75,0,0,1,2.13-3.66,7.32,7.32,0,0,1,3-.53,22.2,22.2,0,0,1,3.92.37,16.36,16.36,0,0,0-.09,1.79c0,.31,0,1.72.05,2h-1a2.7,2.7,0,0,0-.55-1.71,3.1,3.1,0,0,0-2.35-.85c-1.5,0-2.27.64-2.27,1.9,0,1,.8,1.53,1.51,2l.07,0,2,1.18c1.34.78,3,1.75,3,4.14,0,3.91-3.56,4.5-5.69,4.5A11.27,11.27,0,0,1,108.54,69.71Z"/>
        <path class="fill-color" d="M95.56,55.91a14.4,14.4,0,0,0,3.24-.27,7.27,7.27,0,0,0,1.76-.5l.27.13v1.29a4.93,4.93,0,0,1,3.43-1.38,3.57,3.57,0,0,1,2.58.91v.47l-1.25,2.29H105a2.66,2.66,0,0,0-2.47-1.34,2.82,2.82,0,0,0-1.62.47v7.49c0,2,.06,2.88.32,3.26.41.63,1.64.69,2.35.67v.82c-1-.05-2.78-.14-4-.14a38.39,38.39,0,0,0-4,.16V69.5a2.11,2.11,0,0,0,1.61-.63c.46-.52.48-1.74.48-4.26V60.37c0-1.84,0-2.63-.29-3s-.78-.53-1.74-.54Z"/>
        <path class="fill-color" d="M93.95,61.34a7.27,7.27,0,0,0-1-4,5.3,5.3,0,0,0-4.63-2.23c-6.8,0-7,7.23-7,8.06,0,4.69,2.45,7.28,6.92,7.28a6.82,6.82,0,0,0,5.38-2.3l-.44-.74a6.61,6.61,0,0,1-3.53.88c-2.8,0-4.4-1.39-4.9-4.26a11.62,11.62,0,0,1-.15-1.87h9.32Zm-9.29-.85c.05-1.53.53-3.77,2.92-3.77,2.57,0,2.92,2,2.92,3.77Z"/>
        <path class="fill-color" d="M72.28,55.36c-.3,0-1,0-1.37.06-.76,0-1.62.08-2.17.08-1.09,0-2.7-.1-3.2-.15v.88A1.45,1.45,0,0,1,67,57.1c.18.37.33.74.38.87s.17.43.21.52l4.78,12,1.47-.25L79.1,58.44l.18-.37a10.07,10.07,0,0,1,.47-.94,1.7,1.7,0,0,1,1.54-.88l0-.9c-.6,0-1.91.15-2.88.15-.51,0-1,0-1.52-.07l-1.36-.07v.84a2,2,0,0,1,1.25.41.87.87,0,0,1,.26.57,3.82,3.82,0,0,1-.4,1.49l-2.87,7.1c-.14-.43-.33-1-.61-1.75l-2-5.33a4.13,4.13,0,0,1-.37-1.49.74.74,0,0,1,.19-.54,1.77,1.77,0,0,1,1.28-.46Z"/>
        <path class="fill-color" d="M57.41,69.54a2.4,2.4,0,0,0,1.73-.62c.46-.52.49-1.73.49-4.29V60.39c0-1.83,0-2.74-.29-3.14s-.64-.48-1.7-.56v-.85A13.57,13.57,0,0,0,61,55.55,6,6,0,0,0,62.69,55l.33.33c-.09,1-.13,3.11-.13,5.88v4.34c0,2,.06,2.86.33,3.25a2.31,2.31,0,0,0,1.82.71v.71c-.9-.05-2.42-.14-3.75-.14-1.48,0-3.06.06-3.87.15Z"/>
        <path class="fill-color" d="M61.1,52.48a1.79,1.79,0,0,1-1.94-1.85,1.85,1.85,0,0,1,2-1.91,1.8,1.8,0,0,1,1.95,1.85A1.86,1.86,0,0,1,61.1,52.48Z"/>
        <path class="fill-color" d="M39.59,56a13.12,13.12,0,0,0,3-.21,5.67,5.67,0,0,0,2-.65l.3.17v1.18A7.3,7.3,0,0,1,49.16,55c2.67,0,4.42,1.25,4.91,3.52a15.46,15.46,0,0,1,.2,2.66v4.33c0,2.45.1,3.13.55,3.57a2.37,2.37,0,0,0,1.44.43v.69c-1,0-2.65-.14-3.68-.14-1.36,0-2.89.06-3.72.15v-.68a2.59,2.59,0,0,0,1.5-.55c.43-.43.5-1.29.57-3.13,0-.55,0-1.71,0-2.57a30.2,30.2,0,0,0-.13-3.39,2.8,2.8,0,0,0-3.15-2.82,5.76,5.76,0,0,0-2.78.63v7.8c0,2.45.1,3.13.56,3.57a2.39,2.39,0,0,0,1.43.43v.69c-1.23-.07-2.7-.14-3.65-.14a30.07,30.07,0,0,0-3.74.15v-.7a2.22,2.22,0,0,0,1.61-.63c.45-.51.48-1.78.48-4.3V60.38c0-1.84,0-2.61-.29-3s-.72-.55-1.73-.54Z"/>
        <path class="fill-color" d="M28.89,70.45c-4.23,0-6.65-1.31-7.63-4.12a15,15,0,0,1-.49-4.64v-8c0-2.42-.11-2.79-.56-3.18a2.58,2.58,0,0,0-1.43-.45v-.82c1,.11,2.65.15,3.69.15a35.4,35.4,0,0,0,3.78-.15v.85a1.91,1.91,0,0,0-1.6.59c-.47.52-.49,1.43-.49,4v7.05c0,4.16.36,6.88,5.14,6.88s5.11-2.8,5.11-7.07v-7.8c0-2.42-.12-2.79-.56-3.18a2.6,2.6,0,0,0-1.44-.45v-.81c.94,0,2.13.14,3.28.14s2.21,0,3.53-.15v.85a1.91,1.91,0,0,0-1.6.59c-.47.52-.49,1.43-.49,4v6a17.72,17.72,0,0,1-.6,5.71C35.5,69.15,33.08,70.45,28.89,70.45Z"/>
      </g>
    </g>
  <a xmlns="http://www.w3.org/2000/svg" id="anchor" xlink:href="http://www.stanford.edu/" xmlns:xlink="http://www.w3.org/1999/xlink" target="_top">
    <rect x="0" y="0" width="100%" height="100%" fill-opacity="0"/>
  </a>
</svg>