<?xml version="1.0" encoding="utf-8"?>
<!-- Generator: Adobe Illustrator 16.0.0, SVG Export Plug-In . SVG Version: 6.00 Build 0)  -->
<!DOCTYPE svg PUBLIC "-//W3C//DTD SVG 1.1//EN" "http://www.w3.org/Graphics/SVG/1.1/DTD/svg11.dtd">
<svg version="1.1" id="Layer_1" xmlns="http://www.w3.org/2000/svg" xmlns:xlink="http://www.w3.org/1999/xlink" x="0px" y="0px"
	 width="162px" height="40px" viewBox="0 0 162 40" enable-background="new 0 0 162 40" xml:space="preserve">
<g>
	<g>
		<path fill="#383C3F" d="M52.229,26.851C52.094,23.447,52.136,0,52.136,0h2.443v9.65c0,1.449-0.033,2.78-0.1,3.998l-0.073,2.098
			h0.173c1.02-1.611,2.25-2.795,3.69-3.552c1.439-0.757,3.17-1.136,5.196-1.136c3.75,0,6.577,1.181,8.477,3.542
			c1.9,2.361,2.85,5.812,2.85,10.353c0,4.46-1,7.898-2.999,10.316c-1.999,2.419-4.809,3.628-8.428,3.628
			c-1.91,0-3.628-0.396-5.159-1.185c-1.531-0.788-2.74-1.908-3.628-3.356C54.579,34.355,52.397,31,52.229,26.851z M63.415,13.28
			c-3.16,0-5.422,0.904-6.787,2.715c-1.367,1.809-2.049,4.796-2.049,8.958v0.421c0,4.046,0.711,6.951,2.134,8.711
			c1.424,1.761,3.641,2.641,6.652,2.641c2.928,0,5.132-1.024,6.614-3.074c1.481-2.046,2.221-4.963,2.221-8.747
			C72.201,17.154,69.272,13.28,63.415,13.28z"/>
		<path fill="#383C3F" d="M98.511,38.402l-0.617-4.244h-0.197c-1.349,1.728-2.735,2.948-4.159,3.664
			c-1.424,0.718-3.105,1.074-5.047,1.074c-2.632,0-4.682-0.674-6.145-2.024c-1.466-1.347-2.197-3.216-2.197-5.601
			c0-2.618,1.09-4.649,3.271-6.098c2.178-1.447,5.335-2.213,9.464-2.296l5.109-0.146v-1.778c0-2.549-0.519-4.473-1.555-5.775
			c-1.037-1.298-2.707-1.949-5.011-1.949c-2.483,0-5.06,0.692-7.724,2.072l-0.914-2.122c2.946-1.383,5.857-2.072,8.737-2.072
			c2.944,0,5.146,0.764,6.603,2.294s2.185,3.915,2.185,7.158v17.842H98.511L98.511,38.402z M88.639,36.675
			c2.863,0,5.12-0.818,6.774-2.455c1.653-1.637,2.48-3.911,2.48-6.823v-2.642l-4.688,0.197c-3.77,0.182-6.455,0.771-8.058,1.768
			c-1.605,0.994-2.408,2.544-2.408,4.649c0,1.679,0.515,2.984,1.543,3.912C85.31,36.21,86.763,36.675,88.639,36.675z"/>
		<path fill="#383C3F" d="M125.634,31.418c0,2.403-0.913,4.25-2.739,5.541c-1.827,1.293-4.418,1.938-7.775,1.938
			c-3.587,0-6.432-0.552-8.539-1.654v-2.641c2.699,1.351,5.547,2.024,8.539,2.024c2.65,0,4.663-0.441,6.035-1.321
			c1.375-0.88,2.062-2.053,2.062-3.517c0-1.349-0.548-2.484-1.641-3.405c-1.096-0.921-2.894-1.827-5.394-2.716
			c-2.682-0.971-4.566-1.806-5.651-2.505c-1.086-0.699-1.905-1.489-2.455-2.37c-0.553-0.878-0.827-1.952-0.827-3.22
			c0-2.007,0.844-3.595,2.529-4.764c1.687-1.167,4.043-1.751,7.072-1.751c2.894,0,5.642,0.542,8.242,1.628l-0.913,2.224
			c-2.633-1.086-5.078-1.63-7.329-1.63c-2.191,0-3.925,0.361-5.209,1.087c-1.283,0.723-1.924,1.727-1.924,3.009
			c0,1.4,0.497,2.519,1.491,3.357c0.996,0.84,2.939,1.778,5.838,2.813c2.419,0.873,4.179,1.658,5.28,2.357
			c1.104,0.699,1.931,1.493,2.48,2.381C125.358,29.174,125.634,30.219,125.634,31.418z"/>
		<path fill="#383C3F" d="M134.987,38.402h-2.442V11.576h2.442V38.402z"/>
		<path fill="#383C3F" d="M154.683,38.897c-3.834,0-6.836-1.21-9.008-3.629c-2.173-2.418-3.258-5.791-3.258-10.118
			c0-4.442,1.125-7.901,3.38-10.378c2.254-2.475,5.341-3.714,9.256-3.714c2.32,0,4.541,0.404,6.664,1.208l-0.666,2.172
			c-2.32-0.771-4.337-1.159-6.048-1.159c-3.289,0-5.784,1.014-7.479,3.047c-1.692,2.032-2.542,4.956-2.542,8.773
			c0,3.619,0.85,6.452,2.542,8.502c1.695,2.049,4.065,3.072,7.109,3.072c2.435,0,4.697-0.436,6.786-1.308v2.271
			C159.708,38.478,157.464,38.897,154.683,38.897z"/>
	</g>
	<g>
		<path fill="#383C3F" d="M15.325,38.863c0-7.852,0-15.675,0-23.533c7.844,0,15.679,0,23.573,0c0,0.206,0,0.392,0,0.579
			c0,6.58-0.002,13.161,0.003,19.742c0,1.057-0.255,1.981-1.137,2.662c-0.571,0.44-1.22,0.578-1.903,0.579
			c-6.721,0.007-13.441,0.004-20.159,0.003C15.583,38.895,15.465,38.875,15.325,38.863z"/>
		<path fill="#383C3F" d="M38.863,11.07c-12.952,0-25.877,0-38.83,0c-0.012-0.161-0.03-0.296-0.03-0.431
			C0.002,8.121-0.005,5.604,0.005,3.085C0.012,1.59,0.804,0.45,2.066,0.128C2.431,0.035,2.822,0.006,3.2,0.005
			C14.035-0.001,24.871,0,35.705,0.001c1.57,0,2.686,0.733,3.044,2.012c0.088,0.313,0.142,0.647,0.144,0.973
			c0.01,2.587,0.004,5.174,0.002,7.762C38.896,10.848,38.877,10.948,38.863,11.07z"/>
		<path fill="#383C3F" d="M11.075,38.896c-0.758,0-1.467,0-2.176,0c-1.927,0-3.854,0.006-5.782-0.002
			c-1.509-0.007-2.636-0.772-2.975-2.035c-0.093-0.348-0.132-0.719-0.133-1.08C0,29.111,0.002,22.443,0.003,15.776
			c0-0.137,0.014-0.273,0.023-0.445c3.688,0,7.355,0,11.049,0C11.075,23.173,11.075,30.996,11.075,38.896z"/>
	</g>
</g>
</svg>
