<svg id="su-logo-svg" xmlns="http://www.w3.org/2000/svg" viewBox="0 0 176.95 37.07">
	<defs>
		<style type="text/css" media="all">
			@media only screen {
				.su-logo {
					fill: #8c1515; 
				}
			}
			@media print {
				.su-logo {
					fill: #8C1515;
				}
			}
    </style>

	</defs>
	<title>Stanford University Logo</title>
	<path class="su-logo" d="M46.72,36.87c-6.32,0-6.8-4.77-6.8-6.25a6.2,6.2,0,0,1,4.47-6.25c4.15-1.53,5-1.7,7.9-2.6V21A6.67,6.67,0,0,0,52,18.44a4.19,4.19,0,0,0-4.26-2.67A5.1,5.1,0,0,0,43,18.66L41.88,18c.74-2.63,3.39-5.25,8-5.25,3.25,0,5.37.92,6.66,2.9,1,1.57,1.08,3.76,1.08,6,0,2-.06,4.23-.1,6,0,1.24-.06,2.31-.06,3,0,1.63.26,2.91,1.63,2.91.56,0,.67-.15,1.16-.54l.75.87c-1.23,1.6-2.58,2.93-4.86,2.93a3.38,3.38,0,0,1-3.55-2.36A7.86,7.86,0,0,1,46.72,36.87Zm5.57-12.23a25.7,25.7,0,0,0-5.1,1.94,3.84,3.84,0,0,0-2,3.65c0,1.26.45,3.37,3.47,3.37a6.32,6.32,0,0,0,3.67-1.08ZM.17,35.61c0-2.34,0-4.32-.17-6.72H1.38A5,5,0,0,0,2.46,32.2C3.44,33.31,5.72,34,7.85,34c4.43,0,6.49-1.68,6.49-5.28,0-3.09-1.91-4.37-4.55-6.15l-.41-.29L6.6,20.41C2.73,17.85.75,15.79.75,11.69c0-2,.77-8.55,10.51-8.55a48.58,48.58,0,0,1,7.64.62c0,.31-.05,1.81-.05,3.07,0,1.46,0,1.95.06,3.74H17.73a4.52,4.52,0,0,0-1.15-3.27c-.94-.93-3-1.37-5.21-1.37-5.17,0-5.77,2.65-5.77,4.64,0,2.75,1.4,3.67,4.46,5.7l3.54,2.33c3,2,5.83,3.9,5.83,8.88,0,8.44-7.86,9.34-11.24,9.34A24.27,24.27,0,0,1,.17,35.61ZM63,14.28a20.88,20.88,0,0,0,4.7-.33,8.92,8.92,0,0,0,3.1-1l.46.27v1.85A11.44,11.44,0,0,1,78,12.82c4.19,0,6.93,2,7.7,5.52a24.24,24.24,0,0,1,.31,4.16v6.79c0,3.84.15,4.91.87,5.6a3.68,3.68,0,0,0,2.26.67v1.09c-1.5-.07-4.15-.23-5.75-.23-2.13,0-4.53.1-5.83.25V35.6a4,4,0,0,0,2.35-.85c.67-.68.79-2,.89-4.91,0-.86.05-2.69.05-4a47.76,47.76,0,0,0-.2-5.32c-.35-3-1.93-4.41-4.93-4.41a9.07,9.07,0,0,0-4.36,1V29.29c0,3.84.15,4.91.89,5.6a3.68,3.68,0,0,0,2.24.67v1.09c-1.93-.1-4.24-.23-5.72-.23a46,46,0,0,0-5.86.25V35.56a3.46,3.46,0,0,0,2.53-1c.71-.8.75-2.79.75-6.74V21.18c0-2.88-.05-4.1-.46-4.72s-1.12-.87-2.72-.85ZM91.95,35.54a3.41,3.41,0,0,0,2.53-1c.72-.8.76-2.77.76-6.73V16.29h-3V15a12.91,12.91,0,0,0,3-1.57,40.79,40.79,0,0,1,.35-6.17C96.48,2.45,99.64,0,104.91,0a9.34,9.34,0,0,1,5.87,1.93l.08.49-2.31,3.2H108c-.79-1.93-2-3-4.05-3a3.51,3.51,0,0,0-2.34.83c-1,1-1.17,2.5-1.17,5.47V13.4h5.19v2.89H100.4V29.19c0,3.06.11,4.56.51,5.17.65,1,2.69,1.09,3.7,1.05v1.23c-1.71-.1-4.36-.23-6.35-.23a59.41,59.41,0,0,0-6.32.25Zm26.77,1.53c-7.1,0-11.35-4.43-11.35-11.83,0-5.76,3.1-12.47,11.84-12.47,7.1,0,11.33,4.41,11.33,11.83C130.54,30.34,127.44,37.07,118.71,37.07Zm.3-21.61a4.93,4.93,0,0,0-3.31,1.06c-1.86,1.57-2.81,4.41-2.81,8.47,0,1.57.29,9.39,6,9.39a4.86,4.86,0,0,0,3.28-1.05c1.88-1.57,2.82-4.42,2.82-8.49C125,23.28,124.72,15.46,119,15.46Zm13.87-1.27a22.34,22.34,0,0,0,5.09-.42,11.46,11.46,0,0,0,2.76-.78l.42.21v2a7.7,7.7,0,0,1,5.37-2.16,5.58,5.58,0,0,1,4.05,1.44v.73l-2,3.59h-1a4.16,4.16,0,0,0-3.87-2.1,4.39,4.39,0,0,0-2.55.73V29.19c0,3.06.1,4.51.5,5.12.65,1,2.58,1.08,3.69,1v1.29c-1.6-.09-4.35-.23-6.33-.23a58.86,58.86,0,0,0-6.32.25V35.49a3.32,3.32,0,0,0,2.53-1c.72-.81.76-2.72.76-6.68V21.18c0-2.88,0-4.12-.46-4.72s-1.23-.83-2.73-.85ZM165.62,1.35A34.34,34.34,0,0,0,171.09.7a14.56,14.56,0,0,0,2.53-.62l.41.23c-.2,1.92-.2,6.25-.2,9.31v19c0,2.83,0,4.58.45,5.15s1.22.88,2.68.88v1.25a32.25,32.25,0,0,0-5,.48,10,10,0,0,0-2.58.63l-.63-.21v-2a11,11,0,0,1-6.5,2.19c-6.39,0-10.51-4.43-10.51-11.29A15.62,15.62,0,0,1,153,19.45c2-4.22,6-6.64,11.12-6.64a23,23,0,0,1,4.54.44V8.31c0-2.9,0-4.45-.47-5.07s-.8-.71-2.55-.83Zm-.81,32.33a6.84,6.84,0,0,0,3.82-.94V17.16A6.5,6.5,0,0,0,164,15.6c-4.53,0-6.73,3.1-6.73,9.48C157.26,27.76,158.06,33.68,164.81,33.68Zm-127.22.66A7.69,7.69,0,0,1,31.29,37c-3.6,0-5.6-1.28-6.48-4.16a20.09,20.09,0,0,1-.36-4.74c0-3.72,0-6.71.08-10.16V16.32H21.46v-.91a11.18,11.18,0,0,0,2.91-1.61,17.16,17.16,0,0,0,4.33-5.6h1v5.23h7.9v2.89h-7.9V28.53c0,3.65.66,5.73,4.11,5.73a6.78,6.78,0,0,0,3.34-.88Z"/>
</svg>
