<svg width="24" height="24" viewBox="0 0 24 24" fill="none" xmlns="http://www.w3.org/2000/svg">
<path d="M17.205 5.196H16.66V4.8C16.66 4.358 16.302 4 15.86 4C15.418 4 15.06 4.358 15.06 4.8V5.196H9.178V4.8C9.178 4.358 8.82 4 8.378 4C7.936 4 7.578 4.358 7.578 4.8V5.196H6.951C5.324 5.196 4 6.52 4 8.147V16.406C4 18.033 5.324 19.357 6.951 19.357H17.205C18.832 19.357 20.156 18.033 20.156 16.406V8.147C20.156 6.52 18.832 5.196 17.205 5.196ZM6.951 6.796H7.484V7.497C7.484 7.939 7.842 8.297 8.284 8.297C8.726 8.297 9.084 7.939 9.084 7.497V6.796H14.937V7.497C14.937 7.939 15.295 8.297 15.737 8.297C16.179 8.297 16.537 7.939 16.537 7.497V6.796H17.206C17.951 6.796 18.558 7.402 18.558 8.148V9.482H5.599V8.147C5.599 7.402 6.205 6.796 6.951 6.796ZM17.205 17.758H6.951C6.206 17.758 5.599 17.152 5.599 16.406V11.08H18.557V16.406C18.557 17.152 17.95 17.758 17.205 17.758Z" fill="black"/>
<path d="M16.477 12.19H7.678C7.236 12.19 6.878 12.548 6.878 12.99C6.878 13.432 7.236 13.79 7.678 13.79H16.478C16.919 13.79 17.278 13.432 17.278 12.99C17.278 12.548 16.919 12.19 16.477 12.19Z" fill="black"/>
<path d="M16.477 14.899H7.678C7.236 14.899 6.878 15.257 6.878 15.699C6.878 16.141 7.236 16.499 7.678 16.499H16.478C16.919 16.499 17.278 16.141 17.278 15.699C17.278 15.257 16.919 14.899 16.477 14.899Z" fill="black"/>
</svg>
