<svg width="24" height="25" viewBox="0 0 24 25" fill="none" xmlns="http://www.w3.org/2000/svg">
<path fill-rule="evenodd" clip-rule="evenodd" d="M21.4737 10.2016C21.4737 14.0385 18.3632 17.149 14.5263 17.149C10.6894 17.149 7.57895 14.0385 7.57895 10.2016C7.57895 6.36466 10.6894 3.25422 14.5263 3.25422C18.3632 3.25422 21.4737 6.36466 21.4737 10.2016ZM24 10.2016C24 15.4338 19.7585 19.6753 14.5263 19.6753C12.5029 19.6753 10.6277 19.0409 9.08862 17.9603L2.11994 24.3929C1.60732 24.8661 0.808175 24.8341 0.334991 24.3215C-0.138192 23.8089 -0.106226 23.0098 0.406389 22.5366L7.22679 16.2408C5.86882 14.6013 5.05264 12.4968 5.05264 10.2016C5.05264 4.96942 9.29415 0.727905 14.5263 0.727905C19.7585 0.727905 24 4.96942 24 10.2016Z" fill="#B1040E"/>
</svg>
