<svg width="25" height="20" viewBox="0 0 25 20" fill="none" xmlns="http://www.w3.org/2000/svg">
<path fill-rule="evenodd" clip-rule="evenodd" d="M22 1.5H3C2.17157 1.5 1.5 2.17157 1.5 3V13C1.5 13.8284 2.17157 14.5 3 14.5H22C22.8284 14.5 23.5 13.8284 23.5 13V3C23.5 2.17157 22.8284 1.5 22 1.5ZM3 0C1.34315 0 0 1.34315 0 3V13C0 14.6569 1.34315 16 3 16H22C23.6569 16 25 14.6569 25 13V3C25 1.34315 23.6569 0 22 0H3ZM10.5865 11C10.4962 11 10.406 10.9529 10.3158 10.9057C10.0902 10.8114 10 10.6229 10 10.3872V4.58923C10 4.40067 10.0902 4.16498 10.2707 4.07071C10.4511 3.97643 10.6767 3.97643 10.8571 4.07071L15.7293 6.99327C15.9098 7.08754 16 7.27609 16 7.51178C16 7.74747 15.9098 7.93603 15.7293 8.0303L10.8571 10.9057C10.7669 10.9529 10.6767 11 10.5865 11ZM7.75 18.5C7.33579 18.5 7 18.8358 7 19.25C7 19.6642 7.33579 20 7.75 20H18.25C18.6642 20 19 19.6642 19 19.25C19 18.8358 18.6642 18.5 18.25 18.5H7.75Z" fill="#2E2D29"/>
</svg>
