<svg width="24" height="24" viewBox="0 0 24 24" fill="none" xmlns="http://www.w3.org/2000/svg">
<path fill-rule="evenodd" clip-rule="evenodd" d="M10.5578 11.972L0.320725 22.2091C-0.0697988 22.5996 -0.0697992 23.2328 0.320725 23.6233C0.711249 24.0138 1.34441 24.0138 1.73494 23.6233L11.972 13.3862L22.2091 23.6233C22.5996 24.0138 23.2328 24.0138 23.6233 23.6233C24.0138 23.2328 24.0138 22.5996 23.6233 22.2091L13.3862 11.972L23.6232 1.73506C24.0137 1.34454 24.0137 0.711372 23.6232 0.320847C23.2327 -0.069677 22.5995 -0.069677 22.209 0.320847L11.972 10.5578L1.73503 0.320849C1.3445 -0.0696751 0.711339 -0.0696751 0.320815 0.320849C-0.0697094 0.711374 -0.0697094 1.34454 0.320815 1.73506L10.5578 11.972Z" fill="black"/>
</svg>
