<?xml version="1.0" encoding="utf-8"?>
<!-- Generator: Adobe Illustrator 24.0.1, SVG Export Plug-In . SVG Version: 6.00 Build 0)  -->
<svg version="1.1" id="Layer_1" xmlns="http://www.w3.org/2000/svg" xmlns:xlink="http://www.w3.org/1999/xlink" x="0px" y="0px"
	 viewBox="0 0 24 24" style="enable-background:new 0 0 24 24;" xml:space="preserve">
<g>
	<path d="M11.996,4.461c-4.164,0-7.539,3.375-7.539,7.539s3.376,7.539,7.539,7.539s7.539-3.375,7.539-7.539
		S16.16,4.461,11.996,4.461z M16.616,10.191l-4.04,4.04c-0.001,0.002-0.001,0.004-0.002,0.005l-1.147,1.147
		c-0.119,0.119-0.311,0.119-0.43,0l-3.618-3.618c-0.119-0.119-0.119-0.311,0-0.43l1.147-1.147c0.119-0.119,0.311-0.119,0.43,0
		l2.254,2.254l3.829-3.829c0.117-0.117,0.306-0.117,0.423,0l1.154,1.154C16.733,9.885,16.733,10.074,16.616,10.191z"/>
</g>
</svg>
