<?xml version="1.0" encoding="utf-8"?>
<!-- Generator: Adobe Illustrator 24.0.1, SVG Export Plug-In . SVG Version: 6.00 Build 0)  -->
<svg version="1.1" id="Layer_1" xmlns="http://www.w3.org/2000/svg" xmlns:xlink="http://www.w3.org/1999/xlink" x="0px" y="0px"
	 viewBox="0 0 24 24" style="enable-background:new 0 0 24 24;" xml:space="preserve">
<g>
	<path d="M11.996,4.43c-4.181,0-7.57,3.389-7.57,7.57s3.389,7.57,7.57,7.57s7.57-3.389,7.57-7.57S16.177,4.43,11.996,4.43z
		 M13.157,16.581c0,0.167-0.135,0.302-0.302,0.302h-1.717c-0.167,0-0.302-0.135-0.302-0.302v-1.717c0-0.167,0.136-0.303,0.303-0.303
		h1.717c0.167,0,0.302,0.135,0.302,0.302V16.581z M13.112,13.136c-0.005,0.164-0.139,0.294-0.303,0.294h-0.812h-0.812
		c-0.164,0-0.298-0.13-0.303-0.294l-0.173-5.707c-0.005-0.171,0.132-0.312,0.303-0.312h0.986h0.986c0.171,0,0.308,0.141,0.303,0.312
		L13.112,13.136z"/>
</g>
</svg>
