<?xml version="1.0" encoding="utf-8"?>
<!-- Generator: Adobe Illustrator 24.0.1, SVG Export Plug-In . SVG Version: 6.00 Build 0)  -->
<svg version="1.1" id="Layer_1" xmlns="http://www.w3.org/2000/svg" xmlns:xlink="http://www.w3.org/1999/xlink" x="0px" y="0px"
	 viewBox="0 0 24 24" style="enable-background:new 0 0 24 24;" xml:space="preserve">
<g>
	<path d="M19.765,17.809L12.872,5.3c-0.351-0.637-1.266-0.637-1.617,0L4.363,17.809c-0.339,0.615,0.106,1.368,0.808,1.368h13.785
		C19.659,19.178,20.104,18.424,19.765,17.809z M13.195,16.591c0,0.154-0.125,0.279-0.279,0.279h-1.75
		c-0.154,0-0.279-0.125-0.279-0.279v-1.657c0-0.154,0.125-0.279,0.279-0.279h1.75c0.154,0,0.279,0.125,0.279,0.279V16.591z
		 M13.153,13.464c-0.006,0.15-0.13,0.268-0.28,0.268h-0.832h-0.832c-0.15,0-0.273-0.118-0.28-0.268l-0.166-3.871
		c-0.007-0.159,0.12-0.292,0.28-0.292h0.999h0.999c0.159,0,0.286,0.133,0.28,0.292L13.153,13.464z"/>
</g>
</svg>
