<?xml version="1.0" encoding="utf-8"?>
<!-- Generator: Adobe Illustrator 24.0.1, SVG Export Plug-In . SVG Version: 6.00 Build 0)  -->
<svg version="1.1" id="Layer_1" xmlns="http://www.w3.org/2000/svg" xmlns:xlink="http://www.w3.org/1999/xlink" x="0px" y="0px"
	 viewBox="0 0 24 24" style="enable-background:new 0 0 24 24;" xml:space="preserve">
<g>
	<path d="M12,4.568c-4.104,0-7.432,3.327-7.432,7.432c0,4.104,3.327,7.432,7.432,7.432s7.432-3.327,7.432-7.432
		C19.432,7.896,16.104,4.568,12,4.568z M10.934,7.009c0-0.141,0.114-0.256,0.256-0.256h1.614c0.141,0,0.256,0.115,0.256,0.256v1.443
		c0,0.141-0.114,0.256-0.256,0.256h-1.614c-0.141,0-0.256-0.114-0.256-0.256V7.009z M14.163,16.013c0,0.141-0.114,0.256-0.256,0.256
		h-3.822c-0.141,0-0.256-0.114-0.256-0.256v-1.356c0-0.141,0.114-0.256,0.256-0.256h0.853v-2.723h-0.853
		c-0.141,0-0.256-0.114-0.256-0.256v-1.356c0-0.141,0.114-0.256,0.256-0.256h2.714c0.141,0,0.256,0.115,0.256,0.256v1.127v0.229
		v2.979h0.852c0.141,0,0.256,0.115,0.256,0.256V16.013z"/>
</g>
</svg>
