<svg width="14" height="11" viewBox="0 0 14 11" fill="none" xmlns="http://www.w3.org/2000/svg">
<path d="M13.7419 5.00797L7.93548 0.0733508C7.74194 -0.0676382 7.35484 0.00285632 7.16129 0.21434C6.96774 0.496318 7.03226 0.84879 7.22581 1.06027L11.8065 4.93747H0.580645C0.258064 4.93747 0 5.21945 0 5.50143C0 5.8539 0.258064 6.13588 0.580645 6.13588H11.8065L7.29032 9.94258C7.03226 10.1541 7.03226 10.5065 7.22581 10.7885C7.35484 10.9295 7.48387 11 7.67742 11C7.80645 11 7.93548 10.9295 8 10.859L13.8065 5.9244C13.9355 5.78341 14 5.57192 14 5.43093C13.9355 5.28994 13.871 5.14896 13.7419 5.00797Z" fill="#B1040E"/>
</svg>
