<svg width="24" height="24" viewBox="0 0 24 24" fill="none" xmlns="http://www.w3.org/2000/svg">
<path fill-rule="evenodd" clip-rule="evenodd" d="M23.5969 1.45322C23.8859 1.75807 24.0308 2.17359 23.9945 2.59372L22.54 19.4604C22.4704 20.2673 21.7652 20.8646 20.9649 20.7945C20.1646 20.7243 19.5722 20.0132 19.6418 19.2063L20.7777 6.03454L2.42553 22.6254C1.8274 23.1661 0.907803 23.1155 0.371549 22.5124C-0.164706 21.9093 -0.114545 20.982 0.483584 20.4413L18.5574 4.10216L5.15147 4.66539C4.34885 4.69912 3.67108 4.07037 3.63764 3.26106C3.60419 2.45174 4.22774 1.76833 5.03036 1.73461L22.4849 1.00127C22.9028 0.983717 23.3079 1.14838 23.5969 1.45322Z" fill="#2E2D29"/>
</svg>
