<?xml version="1.0" encoding="utf-8"?>
<!-- Generator: Adobe Illustrator 24.0.1, SVG Export Plug-In . SVG Version: 6.00 Build 0)  -->
<svg version="1.1" id="Layer_1" xmlns="http://www.w3.org/2000/svg" xmlns:xlink="http://www.w3.org/1999/xlink" x="0px" y="0px"
	 viewBox="0 0 24 24" style="enable-background:new 0 0 24 24;" xml:space="preserve">
<g>
	<path d="M17.127,5.517h-0.545V5.121c0-0.442-0.358-0.8-0.8-0.8s-0.8,0.358-0.8,0.8v0.396H9.1V5.121c0-0.442-0.358-0.8-0.8-0.8
		s-0.8,0.358-0.8,0.8v0.396H6.873c-1.627,0-2.951,1.324-2.951,2.951v8.259c0,1.627,1.324,2.951,2.951,2.951h10.254
		c1.627,0,2.951-1.324,2.951-2.951V8.468C20.078,6.841,18.754,5.517,17.127,5.517z M6.873,7.117h0.533v0.701
		c0,0.442,0.358,0.8,0.8,0.8s0.8-0.358,0.8-0.8V7.117h5.853v0.701c0,0.442,0.358,0.8,0.8,0.8s0.8-0.358,0.8-0.8V7.117h0.669
		c0.745,0,1.352,0.606,1.352,1.352v1.334H5.521V8.468C5.521,7.723,6.127,7.117,6.873,7.117z M17.127,18.079H6.873
		c-0.745,0-1.352-0.606-1.352-1.352v-5.326h12.958v5.326C18.479,17.473,17.872,18.079,17.127,18.079z"/>
	<path d="M16.399,12.511H7.6c-0.442,0-0.8,0.358-0.8,0.8s0.358,0.8,0.8,0.8h8.8c0.441,0,0.8-0.358,0.8-0.8
		S16.841,12.511,16.399,12.511z"/>
	<path d="M16.399,15.22H7.6c-0.442,0-0.8,0.358-0.8,0.8s0.358,0.8,0.8,0.8h8.8c0.441,0,0.8-0.358,0.8-0.8S16.841,15.22,16.399,15.22
		z"/>
</g>
</svg>
