<?xml version="1.0" encoding="utf-8"?>
<!-- Generator: Adobe Illustrator 24.0.1, SVG Export Plug-In . SVG Version: 6.00 Build 0)  -->
<svg version="1.1" id="Layer_1" xmlns="http://www.w3.org/2000/svg" xmlns:xlink="http://www.w3.org/1999/xlink" x="0px" y="0px"
	 viewBox="0 0 24 24" style="enable-background:new 0 0 24 24;" xml:space="preserve">
<path d="M12.0933,20.9404c-4.9297,0-8.9404-4.0107-8.9404-8.9404s4.0107-8.9404,8.9404-8.9404c4.9302,0,8.9409,4.0107,8.9409,8.9404
	S17.0234,20.9404,12.0933,20.9404z M12.0933,5.0596c-3.8271,0-6.9404,3.1133-6.9404,6.9404s3.1133,6.9404,6.9404,6.9404
	c3.8276,0,6.9409-3.1133,6.9409-6.9404S15.9209,5.0596,12.0933,5.0596z"/>
<path d="M14.002,15.2969c-0.2246,0-0.4512-0.0713-0.6426-0.2197l-2.0029-1.5537c-0.2563-0.1992-0.4062-0.5049-0.4062-0.8296v-4.561
	c0-0.5801,0.4697-1.0498,1.0498-1.0498s1.0498,0.4697,1.0498,1.0498v4.0464l1.5967,1.2378c0.458,0.3555,0.542,1.0156,0.1865,1.4736
	C14.626,15.1572,14.3154,15.2969,14.002,15.2969z"/>
</svg>
