<?xml version="1.0" encoding="utf-8"?>
<!-- Generator: Adobe Illustrator 24.0.1, SVG Export Plug-In . SVG Version: 6.00 Build 0)  -->
<svg version="1.1" id="Layer_1" xmlns="http://www.w3.org/2000/svg" xmlns:xlink="http://www.w3.org/1999/xlink" x="0px" y="0px"
	 viewBox="0 0 24 24" style="enable-background:new 0 0 24 24;" xml:space="preserve">
<path d="M13.563,12l4.466-4.426c0.432-0.428,0.435-1.124,0.007-1.556s-1.124-0.434-1.556-0.007L12,10.451l-4.479-4.44
	C7.09,5.584,6.393,5.588,5.965,6.019C5.537,6.45,5.54,7.146,5.972,7.574L10.437,12l-4.466,4.426
	c-0.432,0.428-0.435,1.124-0.007,1.556c0.215,0.217,0.498,0.325,0.781,0.325c0.28,0,0.56-0.105,0.774-0.318L12,13.549l4.479,4.44
	c0.215,0.213,0.494,0.318,0.774,0.318c0.283,0,0.566-0.108,0.781-0.325c0.428-0.432,0.425-1.128-0.007-1.556L13.563,12z"/>
</svg>
