<?xml version="1.0" encoding="utf-8"?>
<!-- Generator: Adobe Illustrator 24.0.1, SVG Export Plug-In . SVG Version: 6.00 Build 0)  -->
<svg version="1.1" id="Layer_1" xmlns="http://www.w3.org/2000/svg" xmlns:xlink="http://www.w3.org/1999/xlink" x="0px" y="0px"
	 viewBox="0 0 24 24" style="enable-background:new 0 0 24 24;" xml:space="preserve">
<path d="M20.564,15.939h-1.719c0.607-0.426,1.007-1.128,1.007-1.924V7.753c0-1.297-1.056-2.353-2.353-2.353H6.501
	c-1.297,0-2.353,1.056-2.353,2.353v6.261c0,0.796,0.4,1.498,1.007,1.924h-1.72c-0.525,0-0.926,0.651-0.926,0.95
	c0,0.706,0.7,0.76,1.224,0.76H12h8.266c0.525,0,1.224-0.054,1.224-0.76C21.49,16.59,21.089,15.939,20.564,15.939z M6.049,7.753
	c0-0.25,0.203-0.453,0.453-0.453h10.998c0.249,0,0.452,0.203,0.452,0.453v6.261c0,0.249-0.203,0.452-0.452,0.452H6.501
	c-0.25,0-0.453-0.203-0.453-0.452V7.753z"/>
</svg>
