<?xml version="1.0" encoding="utf-8"?>
<!-- Generator: Adobe Illustrator 24.0.1, SVG Export Plug-In . SVG Version: 6.00 Build 0)  -->
<svg version="1.1" id="Layer_1" xmlns="http://www.w3.org/2000/svg" xmlns:xlink="http://www.w3.org/1999/xlink" x="0px" y="0px"
	 viewBox="0 0 24 24" style="enable-background:new 0 0 24 24;" xml:space="preserve">
<path d="M17.847,5.8H5.626c-1.297,0-2.353,1.056-2.353,2.353v7.695c0,1.297,1.056,2.353,2.353,2.353h12.22
	c1.298,0,2.354-1.056,2.354-2.353V8.152C20.2,6.855,19.145,5.8,17.847,5.8z M5.626,7.7h12.22c0.25,0,0.453,0.203,0.453,0.452v1.275
	H5.174V8.152C5.174,7.903,5.377,7.7,5.626,7.7z M17.847,16.3H5.626c-0.25,0-0.452-0.203-0.452-0.452v-3.352H18.3v3.352
	C18.3,16.097,18.097,16.3,17.847,16.3z"/>
</svg>
