<?xml version="1.0" encoding="utf-8"?>
<!-- Generator: Adobe Illustrator 24.2.3, SVG Export Plug-In . SVG Version: 6.00 Build 0)  -->
<svg version="1.1" id="Layer_1" xmlns="http://www.w3.org/2000/svg" xmlns:xlink="http://www.w3.org/1999/xlink" x="0px" y="0px"
	 viewBox="0 0 24 24" style="enable-background:new 0 0 24 24;" xml:space="preserve">
<path d="M18.165,7.2212L15.0088,4.064c-0.1777-0.1782-0.4199-0.2783-0.6719-0.2783H8.3042c-1.2412,0-2.2515,1.0103-2.2515,2.2515
	v11.2373c0,1.2412,1.0103,2.252,2.2515,2.252h7.8882c1.2412,0,2.251-1.0107,2.251-2.252V7.8931
	C18.4434,7.6411,18.3428,7.3994,18.165,7.2212z M16.4966,8.2402h-2.2544V5.985L16.4966,8.2402z M16.1924,17.626H8.3042
	c-0.1938,0-0.3511-0.1572-0.3511-0.3516V6.0371c0-0.1938,0.1572-0.3511,0.3511-0.3511h4.0376v3.5044
	c0,0.5249,0.4253,0.9502,0.9502,0.9502h3.251v7.1338C16.543,17.4688,16.3857,17.626,16.1924,17.626z"/>
</svg>
