<svg width="18" height="24" viewBox="0 0 18 24" fill="none" xmlns="http://www.w3.org/2000/svg">
<path fill-rule="evenodd" clip-rule="evenodd" d="M9 0C9.6717 0 10.2162 0.548223 10.2162 1.22449V15.4422L15.9278 9.74442C16.4049 9.26843 17.1749 9.27199 17.6477 9.75238C18.1205 10.2328 18.117 11.0081 17.6398 11.484L9.85603 19.2491C9.38199 19.722 8.61801 19.722 8.14397 19.2491L0.360182 11.484C-0.116957 11.0081 -0.120495 10.2328 0.35228 9.75238C0.825055 9.27199 1.59511 9.26843 2.07225 9.74442L7.78378 15.4422V1.22449C7.78378 0.548223 8.3283 0 9 0ZM1.19751 22.7755C1.19751 22.0992 1.74202 21.551 2.41372 21.551H15.5863C16.258 21.551 16.8025 22.0992 16.8025 22.7755C16.8025 23.4518 16.258 24 15.5863 24H2.41372C1.74202 24 1.19751 23.4518 1.19751 22.7755Z" fill="#2E2D29"/>
</svg>
