<?xml version="1.0" encoding="utf-8"?>
<!-- Generator: Adobe Illustrator 24.0.1, SVG Export Plug-In . SVG Version: 6.00 Build 0)  -->
<svg version="1.1" id="Layer_1" xmlns="http://www.w3.org/2000/svg" xmlns:xlink="http://www.w3.org/1999/xlink" x="0px" y="0px"
	 viewBox="0 0 24 24" style="enable-background:new 0 0 24 24;" xml:space="preserve">
<g>
	<path d="M17.978,9.342c-0.428-0.43-1.127-0.43-1.555,0L13.1,12.665V3.998c0-0.607-0.492-1.1-1.1-1.1s-1.1,0.493-1.1,1.1v8.667
		L7.578,9.342c-0.43-0.43-1.126-0.43-1.556,0s-0.43,1.126,0,1.556l5.2,5.2c0.215,0.215,0.496,0.322,0.778,0.322
		c0.281,0,0.563-0.107,0.777-0.322l5.2-5.2C18.407,10.468,18.407,9.772,17.978,9.342z"/>
	<path d="M16.3,18.101H7.7c-0.607,0-1.1,0.492-1.1,1.1s0.493,1.1,1.1,1.1h8.6c0.607,0,1.1-0.492,1.1-1.1S16.907,18.101,16.3,18.101z
		"/>
</g>
</svg>
