<svg width="24" height="24" viewBox="0 0 24 24" fill="none" xmlns="http://www.w3.org/2000/svg">
<rect width="24" height="24" fill="white"/>
<path fill-rule="evenodd" clip-rule="evenodd" d="M12 0C12.6717 0 13.2162 0.548223 13.2162 1.22449V15.4422L18.9278 9.74442C19.4049 9.26843 20.1749 9.27199 20.6477 9.75238C21.1205 10.2328 21.117 11.0081 20.6398 11.484L12.856 19.2491C12.382 19.722 11.618 19.722 11.144 19.2491L3.36018 11.484C2.88304 11.0081 2.8795 10.2328 3.35228 9.75238C3.82505 9.27199 4.59511 9.26843 5.07225 9.74442L10.7838 15.4422V1.22449C10.7838 0.548223 11.3283 0 12 0ZM4.19751 22.7755C4.19751 22.0992 4.74202 21.551 5.41372 21.551H18.5863C19.258 21.551 19.8025 22.0992 19.8025 22.7755C19.8025 23.4518 19.258 24 18.5863 24H5.41372C4.74202 24 4.19751 23.4518 4.19751 22.7755Z" fill="#2E2D29"/>
</svg>
