<?xml version="1.0"?>
<svg width="70" height="70" xmlns="http://www.w3.org/2000/svg" xmlns:svg="http://www.w3.org/2000/svg" class="mailto">
 <metadata/>
 <title>(link sends email)</title>
 <g class="layer">
  <title>Layer 1</title>
  <path d="m56,14l-48,0c-1.1,0 -2,0.9 -2,2l0,32c0,1.1 0.9,2 2,2l48,0c1.1,0 2,-0.9 2,-2l0,-32c0,-1.1 -0.9,-2 -2,-2zm-5.5,4c-6.166667,5.133333 -12.333333,10.266667 -18.5,15.4l-18.5,-15.4l37,0zm-40.5,28c0,-8.566667 0,-17.133333 0,-25.7l20.7,17.3c0.4,0.2 0.8,0.4 1.3,0.4s0.9,-0.2 1.3,-0.5l20.7,-17.2l0,25.7c-14.666667,0 -29.333333,0 -44,0z" fill="#000000" id="svg_1" stroke="#ffffff" stroke-width="2"/>
 </g>
</svg>