<?xml version="1.0" encoding="utf-8"?>
<!-- Generator: Adobe Illustrator 25.0.1, SVG Export Plug-In . SVG Version: 6.00 Build 0)  -->
<svg version="1.1" id="Layer_1" xmlns="http://www.w3.org/2000/svg" xmlns:xlink="http://www.w3.org/1999/xlink" x="0px" y="0px"
	 viewBox="0 0 24 24" style="enable-background:new 0 0 24 24;" xml:space="preserve">
<style type="text/css">
	.st0{fill:#B1040E;}
</style>
<path class="st0" d="M18.1,5.8H5.9c-1.3,0-2.4,1.1-2.4,2.4v7.7c0,1.3,1.1,2.4,2.4,2.4h12.2c1.3,0,2.4-1.1,2.4-2.4V8.2
	C20.5,6.9,19.4,5.8,18.1,5.8z M5.9,7.7h12.2c0.2,0,0.3,0.1,0.4,0.2l-6.2,3.5c-0.2,0.1-0.4,0.1-0.5,0L5.5,7.9
	C5.6,7.8,5.7,7.7,5.9,7.7z M18.1,16.3H5.9c-0.2,0-0.5-0.2-0.5-0.5v-5.8l5.4,3c0.4,0.2,0.8,0.3,1.2,0.3s0.8-0.1,1.2-0.3l5.4-3v5.8
	C18.6,16.1,18.4,16.3,18.1,16.3z"/>
</svg>
