<?xml version="1.0" encoding="utf-8"?>
<!-- Generator: Adobe Illustrator 24.0.1, SVG Export Plug-In . SVG Version: 6.00 Build 0)  -->
<svg version="1.1" id="Layer_1" xmlns="http://www.w3.org/2000/svg" xmlns:xlink="http://www.w3.org/1999/xlink" x="0px" y="0px"
	 viewBox="0 0 24 24" style="enable-background:new 0 0 24 24;" xml:space="preserve">
<g>
	<path d="M12.433,12.163l7.271-4.094c-0.325-0.661-0.998-1.119-1.784-1.119H6.209c-0.786,0-1.459,0.459-1.784,1.119l7.272,4.095
		C11.924,12.292,12.205,12.292,12.433,12.163z"/>
	<path d="M13.168,13.471c-0.341,0.191-0.723,0.287-1.104,0.287c-0.381,0-0.763-0.096-1.103-0.286l-6.747-3.8v5.383
		c0,1.102,0.893,1.995,1.995,1.995h11.71c1.102,0,1.995-0.893,1.995-1.995V9.672L13.168,13.471z"/>
</g>
</svg>
