<?xml version="1.0" encoding="utf-8"?>
<!-- Generator: Adobe Illustrator 25.0.1, SVG Export Plug-In . SVG Version: 6.00 Build 0)  -->
<svg version="1.1" id="Layer_1" xmlns:svg="http://www.w3.org/2000/svg"
	 xmlns="http://www.w3.org/2000/svg" xmlns:xlink="http://www.w3.org/1999/xlink" x="0px" y="0px" viewBox="0 0 70 70"
	 style="enable-background:new 0 0 70 70;" xml:space="preserve">
<style type="text/css">
	.st0{fill:#FFFFFF;stroke:#FFFFFF;stroke-width:2;}
</style>
<g>
	<path id="svg_1" class="st0" d="M56,14H8c-1.1,0-2,0.9-2,2v32c0,1.1,0.9,2,2,2h48c1.1,0,2-0.9,2-2V16C58,14.9,57.1,14,56,14z
		 M50.5,18C44.3,23.1,38.2,28.3,32,33.4L13.5,18C13.5,18,50.5,18,50.5,18z M10,46c0-8.6,0-17.1,0-25.7l20.7,17.3
		c0.4,0.2,0.8,0.4,1.3,0.4s0.9-0.2,1.3-0.5L54,20.3V46C39.3,46,24.7,46,10,46z"/>
</g>
</svg>
