<?xml version="1.0" encoding="utf-8"?>
<!-- Generator: Adobe Illustrator 24.0.1, SVG Export Plug-In . SVG Version: 6.00 Build 0)  -->
<svg version="1.1" id="Layer_1" xmlns="http://www.w3.org/2000/svg" xmlns:xlink="http://www.w3.org/1999/xlink" x="0px" y="0px"
	 viewBox="0 0 24 24" style="enable-background:new 0 0 24 24;" xml:space="preserve">
<g>
	<path d="M4.455,7.536H7.06c0.025,0,0.045-0.012,0.069-0.014C7.527,8.405,8.411,9.023,9.44,9.023c1.036,0,1.926-0.625,2.32-1.517
		c0.049,0.007,0.093,0.029,0.145,0.029h7.712c0.58,0,1.05-0.47,1.05-1.05s-0.47-1.05-1.05-1.05h-7.712
		c-0.051,0-0.096,0.022-0.145,0.029c-0.394-0.891-1.284-1.517-2.319-1.517c-1.029,0-1.913,0.619-2.311,1.501
		C7.105,5.448,7.085,5.436,7.06,5.436H4.455c-0.58,0-1.05,0.47-1.05,1.05S3.875,7.536,4.455,7.536z M9.44,5.449
		c0.572,0,1.038,0.465,1.038,1.037c0,0.572-0.465,1.038-1.038,1.038c-0.572,0-1.037-0.465-1.037-1.038
		C8.403,5.914,8.868,5.449,9.44,5.449z"/>
	<path d="M19.616,10.95h-3.144c-0.011,0-0.02,0.006-0.031,0.006c-0.399-0.878-1.28-1.494-2.307-1.494
		c-1.045,0-1.943,0.635-2.331,1.539c-0.084-0.022-0.166-0.052-0.257-0.052H4.455c-0.58,0-1.05,0.47-1.05,1.05s0.47,1.05,1.05,1.05
		h7.092c0.091,0,0.173-0.03,0.257-0.052c0.388,0.904,1.286,1.539,2.331,1.539c1.027,0,1.907-0.615,2.307-1.494
		c0.011,0,0.02,0.006,0.031,0.006h3.144c0.58,0,1.05-0.47,1.05-1.05S20.196,10.95,19.616,10.95z M14.135,13.037
		c-0.572,0-1.037-0.465-1.037-1.037c0-0.572,0.465-1.037,1.037-1.037s1.037,0.465,1.037,1.037
		C15.172,12.572,14.707,13.037,14.135,13.037z"/>
	<path d="M19.616,16.464h-7.987c-0.011,0-0.021,0.006-0.032,0.006c-0.399-0.879-1.28-1.494-2.307-1.494
		c-1.047,0-1.947,0.637-2.334,1.544c-0.091-0.026-0.181-0.057-0.281-0.057h-2.22c-0.58,0-1.05,0.47-1.05,1.05s0.47,1.05,1.05,1.05
		h2.22c0.1,0,0.189-0.031,0.281-0.057c0.387,0.907,1.287,1.545,2.335,1.545c1.026,0,1.908-0.616,2.307-1.495
		c0.011,0,0.021,0.006,0.032,0.006h7.987c0.58,0,1.05-0.47,1.05-1.05S20.196,16.464,19.616,16.464z M9.29,18.552
		c-0.572,0-1.038-0.466-1.038-1.038s0.465-1.037,1.038-1.037c0.572,0,1.037,0.465,1.037,1.037S9.862,18.552,9.29,18.552z"/>
</g>
</svg>
