<svg width="24" height="24" viewBox="0 0 24 24" fill="none" xmlns="http://www.w3.org/2000/svg">
<path d="M4.05 7.589H6.655C6.68 7.589 6.7 7.577 6.724 7.575C7.122 8.458 8.006 9.076 9.035 9.076C10.071 9.076 10.961 8.451 11.355 7.559C11.404 7.566 11.448 7.588 11.5 7.588H19.212C19.792 7.588 20.262 7.118 20.262 6.538C20.262 5.958 19.792 5.488 19.212 5.488H11.5C11.449 5.488 11.404 5.51 11.355 5.517C10.961 4.626 10.071 4 9.036 4C8.007 4 7.123 4.619 6.725 5.501C6.7 5.501 6.68 5.489 6.655 5.489H4.05C3.47 5.489 3 5.959 3 6.539C3 7.119 3.47 7.589 4.05 7.589ZM9.035 5.502C9.607 5.502 10.073 5.967 10.073 6.539C10.073 7.111 9.608 7.577 9.035 7.577C8.463 7.577 7.998 7.112 7.998 6.539C7.998 5.967 8.463 5.502 9.035 5.502Z" fill="black"/>
<path d="M19.211 11.003H16.067C16.056 11.003 16.047 11.009 16.036 11.009C15.637 10.131 14.756 9.515 13.729 9.515C12.684 9.515 11.786 10.15 11.398 11.054C11.314 11.032 11.232 11.002 11.141 11.002H4.05C3.47 11.002 3 11.472 3 12.052C3 12.632 3.47 13.102 4.05 13.102H11.142C11.233 13.102 11.315 13.072 11.399 13.05C11.787 13.954 12.685 14.589 13.73 14.589C14.757 14.589 15.637 13.974 16.037 13.095C16.048 13.095 16.057 13.101 16.068 13.101H19.212C19.792 13.101 20.262 12.631 20.262 12.051C20.262 11.471 19.791 11.003 19.211 11.003ZM13.73 13.09C13.158 13.09 12.693 12.625 12.693 12.053C12.693 11.481 13.158 11.016 13.73 11.016C14.302 11.016 14.767 11.481 14.767 12.053C14.767 12.625 14.302 13.09 13.73 13.09Z" fill="black"/>
<path d="M19.211 16.517H11.224C11.213 16.517 11.203 16.523 11.192 16.523C10.793 15.644 9.912 15.029 8.885 15.029C7.838 15.029 6.938 15.666 6.551 16.573C6.46 16.547 6.37 16.516 6.27 16.516H4.05C3.47 16.516 3 16.986 3 17.566C3 18.146 3.47 18.616 4.05 18.616H6.27C6.37 18.616 6.459 18.585 6.551 18.559C6.938 19.466 7.838 20.104 8.886 20.104C9.912 20.104 10.794 19.488 11.193 18.609C11.204 18.609 11.214 18.615 11.225 18.615H19.212C19.792 18.615 20.262 18.145 20.262 17.565C20.262 16.985 19.791 16.517 19.211 16.517ZM8.885 18.605C8.313 18.605 7.847 18.139 7.847 17.567C7.847 16.995 8.312 16.53 8.885 16.53C9.457 16.53 9.922 16.995 9.922 17.567C9.922 18.139 9.457 18.605 8.885 18.605Z" fill="black"/>
</svg>
