<?xml version="1.0" encoding="utf-8"?>
<!-- Generator: Adobe Illustrator 24.0.1, SVG Export Plug-In . SVG Version: 6.00 Build 0)  -->
<svg version="1.1" id="Layer_1" xmlns="http://www.w3.org/2000/svg" xmlns:xlink="http://www.w3.org/1999/xlink" x="0px" y="0px"
	 viewBox="0 0 24 24" style="enable-background:new 0 0 24 24;" xml:space="preserve">
<g>
	<path d="M5.8,8.55h12.4c0.607,0,1.1-0.493,1.1-1.1s-0.492-1.1-1.1-1.1H5.8c-0.607,0-1.1,0.493-1.1,1.1S5.192,8.55,5.8,8.55z"/>
	<path d="M18.2,10.9H5.8c-0.607,0-1.1,0.493-1.1,1.1s0.493,1.1,1.1,1.1h12.4c0.607,0,1.1-0.492,1.1-1.1S18.808,10.9,18.2,10.9z"/>
	<path d="M18.2,15.45H5.8c-0.607,0-1.1,0.492-1.1,1.1s0.493,1.1,1.1,1.1h12.4c0.607,0,1.1-0.492,1.1-1.1S18.808,15.45,18.2,15.45z"
		/>
</g>
</svg>
