<svg width="27" height="27" viewBox="0 0 27 27" fill="none" xmlns="http://www.w3.org/2000/svg">
<path d="M19.375 2.75C22 2.75 24.125 4.875 24.125 7.5V19.25C24.125 21.875 22 24 19.375 24H7.75C5.125 24 3 21.875 3 19.25V7.5C3 4.875 5.125 2.75 7.75 2.75H19.375ZM19.375 0.25H7.75C3.75 0.25 0.5 3.5 0.5 7.5V19.25C0.5 23.25 3.75 26.5 7.75 26.5H19.5C23.5 26.5 26.75 23.25 26.75 19.25V7.5C26.625 3.5 23.375 0.25 19.375 0.25Z" fill="#2E2D29"/>
<path d="M13.5 9C15.875 9 17.75 10.875 17.75 13.25C17.75 15.625 15.875 17.5 13.5 17.5C11.125 17.5 9.25 15.625 9.25 13.25C9.25 10.875 11.125 9 13.5 9ZM13.5 6.5C9.75 6.5 6.75 9.5 6.75 13.25C6.75 17 9.75 20 13.5 20C17.25 20 20.25 17 20.25 13.25C20.25 9.5 17.375 6.5 13.5 6.5Z" fill="#2E2D29"/>
<path d="M20.75 7.875C21.6475 7.875 22.375 7.14746 22.375 6.25C22.375 5.35254 21.6475 4.625 20.75 4.625C19.8525 4.625 19.125 5.35254 19.125 6.25C19.125 7.14746 19.8525 7.875 20.75 7.875Z" fill="#2E2D29"/>
</svg>
