<svg id="Layer_1" data-name="Layer 1" xmlns="http://www.w3.org/2000/svg" viewBox="0 0 24 24"><defs><style>.cls-1{fill:#231f20;}</style></defs><title>link-24px</title><path class="cls-1" d="M19.582,4.29053a4.4615,4.4615,0,0,0-6.2832-.02686c-.00879.00879-.39795.39649-.76514.76367l-.49853.49805a1.05,1.05,0,1,0,1.48339,1.48633l1.23829-1.23633a2.41782,2.41782,0,0,1,3.34082.00049,2.36729,2.36729,0,0,1,.70312,1.6665A2.29708,2.29708,0,0,1,18.124,9.0918c-.01953.01953-.63086.63086-1.34375,1.34326-.98828.98828-2.17187,2.17236-2.22363,2.22363a2.42356,2.42356,0,0,1-3.30957-.03223,2.03778,2.03778,0,0,1-.21289-.249,1.05024,1.05024,0,1,0-1.7041,1.228,4.12243,4.12243,0,0,0,.43164.50586,4.52456,4.52456,0,0,0,6.26367.04785c.02734-.02637,1.23438-1.2334,2.24023-2.23926l1.33887-1.33887a4.3856,4.3856,0,0,0,1.2959-3.15234A4.45109,4.45109,0,0,0,19.582,4.29053Z"/><path class="cls-1" d="M10.48145,16.73438,9.24414,17.9707a2.36308,2.36308,0,0,1-3.36035-3.32324c.07275-.07324,3.46875-3.47021,3.55957-3.56006a2.42082,2.42082,0,0,1,3.30859.03028,2.10062,2.10062,0,0,1,.21729.25537A1.0501,1.0501,0,1,0,14.667,10.13672a4.308,4.308,0,0,0-.42871-.50244,4.523,4.523,0,0,0-6.26367-.04785c-.04688.04589-3.53613,3.53662-3.5791,3.57959a4.463,4.463,0,0,0,6.334,6.28906l1.23535-1.23438a1.05,1.05,0,1,0-1.48339-1.48632Z"/></svg>