<svg width="24" height="24" viewBox="0 0 24 24" fill="none" xmlns="http://www.w3.org/2000/svg">
<path d="M15.8 9.5V7C15.8 4.8 13.9 3 11.5 3H11.2C8.8 3 6.9 4.8 6.9 7V9.5C5.3 9.5 4 10.7 4 12.2V18.4C4 19.9 5.3 21.1 6.9 21.1H15.8C17.4 21.1 18.7 19.9 18.7 18.4V12.2C18.6 10.7 17.3 9.5 15.8 9.5ZM8.6 7C8.6 5.7 9.8 4.7 11.2 4.7H11.5C12.9 4.7 14.1 5.7 14.1 7V9.5H8.6V7ZM17 18.4C17 19 16.4 19.4 15.7 19.4H6.9C6.3 19.4 5.7 19 5.7 18.4V12.2C5.7 11.6 6.2 11.2 6.9 11.2H15.8C16.4 11.2 17 11.7 17 12.2V18.4Z" fill="#2E2D29"/>
</svg>
