<?xml version="1.0" encoding="utf-8"?>
<!-- Generator: Adobe Illustrator 24.0.1, SVG Export Plug-In . SVG Version: 6.00 Build 0)  -->
<svg version="1.1" id="Layer_1" xmlns="http://www.w3.org/2000/svg" xmlns:xlink="http://www.w3.org/1999/xlink" x="0px" y="0px"
	 viewBox="0 0 24 24" style="enable-background:new 0 0 24 24;" xml:space="preserve">
<path d="M16.144,8.999h-0.211V7.333c0-1.952-1.664-3.54-3.709-3.54h-1.198c-2.045,0-3.708,1.588-3.708,3.54v1.666H7.215
	c-1.379,0-2.5,1.122-2.5,2.5v5.567c0,1.379,1.122,2.5,2.5,2.5h8.929c1.379,0,2.5-1.121,2.5-2.5v-5.567
	C18.644,10.121,17.522,8.999,16.144,8.999z M9.317,7.333c0-0.849,0.767-1.54,1.708-1.54h1.198c0.942,0,1.709,0.69,1.709,1.54v1.666
	H9.317V7.333z"/>
</svg>
