<svg width="15" height="19" viewBox="0 0 15 19" fill="none" xmlns="http://www.w3.org/2000/svg">
<path d="M11.8 6.5V4C11.8 1.8 9.9 0 7.5 0H7.2C4.8 0 2.9 1.8 2.9 4V6.5C1.3 6.5 0 7.7 0 9.2V15.4C0 16.9 1.3 18.1 2.9 18.1H11.8C13.4 18.1 14.7 16.9 14.7 15.4V9.2C14.6 7.7 13.3 6.5 11.8 6.5ZM4.6 4C4.6 2.7 5.8 1.7 7.2 1.7H7.5C8.9 1.7 10.1 2.7 10.1 4V6.5H4.6V4ZM13 15.4C13 16 12.4 16.4 11.7 16.4H2.9C2.3 16.4 1.7 16 1.7 15.4V9.2C1.7 8.6 2.2 8.2 2.9 8.2H11.8C12.4 8.2 13 8.7 13 9.2V15.4Z" fill="#2E2D29"/>
</svg>
