<?xml version="1.0" encoding="utf-8"?>
<!-- Generator: Adobe Illustrator 24.0.1, SVG Export Plug-In . SVG Version: 6.00 Build 0)  -->
<svg version="1.1" id="Layer_1" xmlns="http://www.w3.org/2000/svg" xmlns:xlink="http://www.w3.org/1999/xlink" x="0px" y="0px"
	 viewBox="0 0 24 24" style="enable-background:new 0 0 24 24;" xml:space="preserve">
<path d="M13.961,3.386c-3.72,0-6.746,3.026-6.746,6.747c0,1.434,0.453,2.762,1.218,3.856L3.6,18.822c-0.41,0.41-0.41,1.074,0,1.484
	c0.205,0.205,0.474,0.308,0.742,0.308s0.538-0.103,0.743-0.308L9.891,15.5c1.133,0.861,2.54,1.379,4.07,1.379
	c3.72,0,6.746-3.026,6.746-6.747S17.681,3.386,13.961,3.386z M13.961,14.779c-2.562,0-4.646-2.085-4.646-4.647
	s2.084-4.647,4.646-4.647c2.562,0,4.646,2.085,4.646,4.647S16.522,14.779,13.961,14.779z"/>
</svg>
