<svg width="24" height="24" viewBox="0 0 24 24" fill="none" xmlns="http://www.w3.org/2000/svg">
<path d="M11.62 3C7.97 3 5 5.97 5 9.62C5 12.596 8.829 21.031 11.62 21.031C14.411 21.031 18.241 12.595 18.241 9.62C18.241 5.97 15.271 3 11.62 3ZM11.62 18.907C10.375 18.279 7.099 12.342 7.099 9.621C7.099 7.128 9.127 5.1 11.62 5.1C14.113 5.1 16.141 7.128 16.141 9.621C16.141 12.341 12.865 18.279 11.62 18.907Z" fill="black"/>
<path d="M11.62 11.5C12.7897 11.5 13.738 10.5517 13.738 9.382C13.738 8.21226 12.7897 7.264 11.62 7.264C10.4503 7.264 9.502 8.21226 9.502 9.382C9.502 10.5517 10.4503 11.5 11.62 11.5Z" fill="black"/>
</svg>
