<?xml version="1.0" encoding="utf-8"?>
<!-- Generator: Adobe Illustrator 24.0.1, SVG Export Plug-In . SVG Version: 6.00 Build 0)  -->
<svg version="1.1" id="Layer_1" xmlns="http://www.w3.org/2000/svg" xmlns:xlink="http://www.w3.org/1999/xlink" x="0px" y="0px"
	 viewBox="0 0 24 24" style="enable-background:new 0 0 24 24;" xml:space="preserve">
<style type="text/css">
	.st0{fill:#231F20;}
</style>
<path class="st0" d="M20.4492,6.5342l-2.7295-2.7295c-0.9902-0.9897-2.5996-0.9878-3.5869,0l-9.1187,9.1187
	c-0.6606,0.6606-1.1548,2.8794-1.2905,3.5444c-0.6353,3.1094-0.0781,3.666,0.1597,3.9043c0.3008,0.3008,0.8916,0.4209,1.6157,0.4209
	c2.085,0,5.2754-0.9961,5.8315-1.5518l9.1177-9.1191c0.4795-0.479,0.7441-1.1162,0.7441-1.7944
	C21.1924,7.6499,20.9277,7.0127,20.4492,6.5342z M10.085,17.9434c-0.238,0.1785-0.9376,0.4128-1.7484,0.6191l-2.647-2.6469
	c0.2016-0.8034,0.4284-1.4925,0.597-1.7192l6.0947-6.0947l3.7712,3.7719L10.085,17.9434z M19.1758,8.8491l-1.7507,1.7513
	l-3.7713-3.7713l1.7515-1.7515c0.2871-0.2871,0.7539-0.2881,1.042,0l2.7295,2.7295c0.1387,0.1392,0.2158,0.3242,0.2158,0.5205
	C19.3926,8.5244,19.3154,8.7095,19.1758,8.8491z"/>
</svg>
