<svg width="24" height="24" viewBox="0 0 24 24" fill="none" xmlns="http://www.w3.org/2000/svg">
<path d="M20.7295 16.078C20.7255 15.848 20.6135 15.62 20.3705 15.383C16.8565 13.138 16.7715 13.138 16.7165 13.138C15.9905 13.138 15.3315 13.811 14.8515 14.303C14.6565 14.501 14.3895 14.774 14.3135 14.781C13.0965 14.687 9.86452 11.929 9.53452 10.137C9.61952 10.022 9.75352 9.875 9.90652 9.709C10.5545 9.001 11.5355 7.93 10.9535 6.934L8.91652 3.54C8.58852 3.103 7.95352 3 7.71452 3C7.71152 3 7.70752 3 7.70452 3C6.61052 3.218 3.81652 4.592 4.00952 8.271C4.10752 10.907 5.56752 13.94 7.91452 16.386C10.3265 18.895 13.2915 20.393 15.8455 20.393H15.9425C17.3235 20.393 19.1185 19.413 20.1135 18.117C20.6175 17.511 20.8295 16.807 20.7295 16.078ZM7.91752 9.319C7.79152 9.445 7.68052 9.775 7.68052 9.908C7.68052 10.33 8.16752 12.001 10.3335 14.073C12.6205 16.264 14.5605 16.76 15.1565 16.408C15.2925 16.317 15.5465 16.053 15.8395 15.747C16.0975 15.478 16.4775 15.082 16.5965 14.997L19.0465 16.54C19.0015 16.625 18.8935 16.801 18.6305 17.15C17.9585 17.918 16.6415 18.74 15.7495 18.74C13.7575 18.74 11.3065 17.422 9.19352 15.214C7.29152 13.217 6.04352 10.615 5.85352 8.247C5.58652 6.195 7.20752 5.108 7.77452 4.794L9.39252 7.491C9.15752 7.832 8.09352 9.142 7.91752 9.319Z" fill="black"/>
</svg>
