<?xml version="1.0" encoding="utf-8"?>
<!-- Generator: Adobe Illustrator 24.0.1, SVG Export Plug-In . SVG Version: 6.00 Build 0)  -->
<svg version="1.1" id="Layer_1" xmlns="http://www.w3.org/2000/svg" xmlns:xlink="http://www.w3.org/1999/xlink" x="0px" y="0px"
	 viewBox="0 0 24 24" style="enable-background:new 0 0 24 24;" xml:space="preserve">
<path d="M20.353,16.384c-0.004-0.23-0.116-0.458-0.359-0.695c-3.514-2.245-3.599-2.245-3.654-2.245
	c-0.726,0-1.385,0.673-1.865,1.165c-0.195,0.198-0.462,0.471-0.538,0.478c-1.217-0.094-4.449-2.852-4.779-4.644
	c0.085-0.115,0.219-0.262,0.372-0.428c0.648-0.708,1.629-1.779,1.047-2.775L8.54,3.846c-0.328-0.437-0.963-0.54-1.202-0.54
	c-0.003,0-0.007,0-0.01,0C6.234,3.524,3.44,4.898,3.633,8.577c0.098,2.636,1.558,5.669,3.905,8.115
	c2.412,2.509,5.377,4.007,7.931,4.007h0.097c1.381,0,3.176-0.98,4.171-2.276C20.241,17.817,20.453,17.113,20.353,16.384z
	 M7.541,9.625c-0.126,0.126-0.237,0.456-0.237,0.589c0,0.422,0.487,2.093,2.653,4.165c2.287,2.191,4.227,2.687,4.823,2.335
	c0.136-0.091,0.39-0.355,0.683-0.661c0.258-0.269,0.638-0.665,0.757-0.75l2.45,1.543c-0.045,0.085-0.153,0.261-0.416,0.61
	c-0.672,0.768-1.989,1.59-2.881,1.59c-1.992,0-4.443-1.318-6.556-3.526c-1.902-1.997-3.15-4.599-3.34-6.967
	C5.21,6.501,6.831,5.414,7.398,5.1l1.618,2.697C8.781,8.138,7.717,9.448,7.541,9.625z"/>
</svg>
