<?xml version="1.0" encoding="utf-8"?>
<!-- Generator: Adobe Illustrator 24.0.1, SVG Export Plug-In . SVG Version: 6.00 Build 0)  -->
<svg version="1.1" id="Layer_1" xmlns="http://www.w3.org/2000/svg" xmlns:xlink="http://www.w3.org/1999/xlink" x="0px" y="0px"
	 viewBox="0 0 24 24" style="enable-background:new 0 0 24 24;" xml:space="preserve">
<path d="M19.307,10.346h-6.246V4.1c0-0.607-0.492-1.1-1.1-1.1c-0.607,0-1.1,0.493-1.1,1.1v6.246H4.614c-0.607,0-1.1,0.493-1.1,1.1
	c0,0.608,0.493,1.1,1.1,1.1h6.246v6.246c0,0.607,0.493,1.1,1.1,1.1c0.608,0,1.1-0.492,1.1-1.1v-6.246h6.246
	c0.607,0,1.1-0.492,1.1-1.1C20.406,10.838,19.914,10.346,19.307,10.346z"/>
</svg>
