<?xml version="1.0" encoding="utf-8"?>
<!-- Generator: Adobe Illustrator 24.0.1, SVG Export Plug-In . SVG Version: 6.00 Build 0)  -->
<svg version="1.1" id="Layer_1" xmlns="http://www.w3.org/2000/svg" xmlns:xlink="http://www.w3.org/1999/xlink" x="0px" y="0px"
	 viewBox="0 0 24 24" style="enable-background:new 0 0 24 24;" xml:space="preserve">
<g>
	<path d="M18.5,7.4h-1.7v-2c0-0.5-0.4-0.9-0.9-0.9H7.9C7.4,4.5,7,4.9,7,5.4v2H5.4c-0.6,0-0.9,0.4-0.9,0.8v5.3c0,0.5,0.4,0.9,0.9,0.9
		H7v4.2C7,19,7.4,19.5,8,19.5h8c0.5,0,0.9-0.4,0.9-0.9v-4.2h1.7c0.5,0,0.9-0.4,0.9-0.9V8.2C19.3,7.8,18.9,7.4,18.5,7.4z M15.4,18h-7
		v-6.1h7V18z M15.4,9.1h-7V5.9h7V9.1z"/>
	<path d="M10.1,14.1h3.5c0.4,0,0.6-0.3,0.6-0.6c0-0.3-0.2-0.6-0.6-0.6h-3.5c-0.4,0-0.6,0.3-0.6,0.6C9.5,13.8,9.8,14.1,10.1,14.1z"/>
	<path d="M10.1,16.4h3.5c0.4,0,0.6-0.3,0.6-0.6c0-0.3-0.2-0.7-0.6-0.7h-3.5c-0.4,0-0.6,0.3-0.6,0.6C9.5,16,9.8,16.4,10.1,16.4z"/>
</g>
</svg>
