<?xml version="1.0" encoding="utf-8"?>
<!-- Generator: Adobe Illustrator 24.0.1, SVG Export Plug-In . SVG Version: 6.00 Build 0)  -->
<svg version="1.1" id="Layer_1" xmlns="http://www.w3.org/2000/svg" xmlns:xlink="http://www.w3.org/1999/xlink" x="0px" y="0px"
	 viewBox="0 0 24 24" style="enable-background:new 0 0 24 24;" xml:space="preserve">
<path d="M21.366,12.349c0.018-0.052,0.03-0.102,0.04-0.156c0.01-0.05,0.019-0.097,0.021-0.148c0.001-0.02,0.012-0.038,0.012-0.058
	c0-0.02-0.011-0.038-0.012-0.058c-0.003-0.051-0.012-0.099-0.022-0.149c-0.01-0.053-0.022-0.103-0.04-0.154
	c-0.013-0.038-0.026-0.075-0.043-0.111c-0.022-0.046-0.051-0.085-0.079-0.127c-0.018-0.028-0.024-0.061-0.045-0.088
	c-0.013-0.017-0.033-0.024-0.047-0.04c-0.028-0.031-0.055-0.058-0.086-0.086c-0.016-0.014-0.022-0.033-0.039-0.047l-7.57-6.053
	c-0.475-0.381-1.167-0.301-1.545,0.172c-0.379,0.475-0.303,1.167,0.172,1.546l5.119,4.094H3.661c-0.607,0-1.1,0.493-1.1,1.1
	s0.493,1.1,1.1,1.1h13.543l-5.12,4.094c-0.475,0.38-0.552,1.072-0.172,1.546c0.217,0.272,0.537,0.413,0.86,0.413
	c0.24,0,0.483-0.078,0.686-0.24l7.569-6.053c0.017-0.013,0.024-0.033,0.039-0.047c0.032-0.029,0.06-0.058,0.089-0.09
	c0.013-0.015,0.032-0.02,0.045-0.035c0.022-0.027,0.027-0.061,0.046-0.09c0.028-0.042,0.056-0.081,0.078-0.125
	C21.34,12.424,21.353,12.388,21.366,12.349z"/>
</svg>
