<?xml version="1.0" encoding="utf-8"?>
<!-- Generator: Adobe Illustrator 24.1.0, SVG Export Plug-In . SVG Version: 6.00 Build 0)  -->
<svg version="1.1" id="Layer_1" xmlns="http://www.w3.org/2000/svg" xmlns:xlink="http://www.w3.org/1999/xlink" x="0px" y="0px"
	 viewBox="0 0 24 24" style="enable-background:new 0 0 24 24;" xml:space="preserve">
<style type="text/css">
	.st0{fill:#231F20;}
</style>
<g>
	<path class="st0" d="M8.55,4.9h6.9c0.497,0,0.9-0.403,0.9-0.9s-0.403-0.9-0.9-0.9h-6.9c-0.497,0-0.9,0.403-0.9,0.9
		S8.053,4.9,8.55,4.9z"/>
	<path class="st0" d="M10.45,17.5c0.497,0,0.9-0.403,0.9-0.9V11c0-0.497-0.403-0.9-0.9-0.9s-0.9,0.403-0.9,0.9v5.6
		C9.55,17.097,9.953,17.5,10.45,17.5z"/>
	<path class="st0" d="M13.55,17.5c0.497,0,0.9-0.403,0.9-0.9V11c0-0.497-0.403-0.9-0.9-0.9s-0.9,0.403-0.9,0.9v5.6
		C12.65,17.097,13.053,17.5,13.55,17.5z"/>
	<path class="st0" d="M18.85,6.5h-3.241H8.402H5.15c-0.497,0-0.9,0.403-0.9,0.9s0.403,0.9,0.9,0.9h1.009
		C6.123,8.462,6.1,8.63,6.1,8.803v9.795c0,1.27,1.033,2.303,2.302,2.303h7.206c1.27,0,2.303-1.033,2.303-2.303V8.803
		c0-0.173-0.023-0.341-0.059-0.503h0.998c0.497,0,0.9-0.403,0.9-0.9S19.347,6.5,18.85,6.5z M16.11,8.803v9.795
		c0,0.277-0.225,0.502-0.502,0.502H8.402c-0.277,0-0.502-0.225-0.502-0.502V8.803C7.9,8.525,8.125,8.3,8.402,8.3h7.206
		C15.886,8.3,16.11,8.525,16.11,8.803z"/>
</g>
</svg>
