<svg width="26" height="21" viewBox="0 0 26 21" fill="none" xmlns="http://www.w3.org/2000/svg">
<path d="M21.875 1.68854C18.75 -1.93646 11.875 0.563538 13 6.43854C6.5 6.31354 2.625 1.56354 2.25 1.06354C0.125 4.93854 3.125 7.56354 3.875 8.06354C3.125 7.93854 2.5 7.93854 1.375 7.31354C1.5 9.31354 2.5 11.8135 5.625 12.5635C5.125 12.6885 3.75 12.8135 3.25 12.6885C4 15.1885 6.5 16.3135 8.125 16.3135C5 18.6885 2 18.6885 0.5 18.4385C2.875 20.3135 9.25 22.4385 16 18.8135C20.625 16.3135 24 10.1885 23.25 5.31354C24.5 4.43854 25.75 2.93854 25.875 2.56354C24.625 3.06354 23.75 3.31354 22.875 3.31354C23.75 2.93854 24.875 1.56354 25.125 0.438538C23.75 1.31354 22.125 1.68854 21.875 1.68854Z" fill="#2E2D29"/>
</svg>
