<?xml version="1.0" encoding="utf-8"?>
<!-- Generator: Adobe Illustrator 24.0.1, SVG Export Plug-In . SVG Version: 6.00 Build 0)  -->
<svg version="1.1" id="Layer_1" xmlns="http://www.w3.org/2000/svg" xmlns:xlink="http://www.w3.org/1999/xlink" x="0px" y="0px"
	 viewBox="0 0 24 24" style="enable-background:new 0 0 24 24;" xml:space="preserve">
<g>
	<path d="M15.29,17.088H8.838c-0.525,0-0.95,0.426-0.95,0.95s0.425,0.95,0.95,0.95h6.452c0.524,0,0.95-0.426,0.95-0.95
		S15.814,17.088,15.29,17.088z"/>
	<path d="M18.239,5.012H5.888c-1.269,0-2.301,1.033-2.301,2.302v6.147c0,1.27,1.032,2.302,2.301,2.302h12.351
		c1.27,0,2.302-1.032,2.302-2.302V7.313C20.541,6.044,19.509,5.012,18.239,5.012z M18.641,13.461c0,0.222-0.18,0.401-0.401,0.401
		H5.888c-0.221,0-0.401-0.18-0.401-0.401V7.313c0-0.221,0.18-0.401,0.401-0.401h12.351c0.222,0,0.401,0.18,0.401,0.401V13.461z"/>
	<path d="M13.827,10.003l-3.082-1.78c-0.137-0.079-0.307-0.079-0.444,0c-0.137,0.079-0.222,0.226-0.222,0.385v3.559
		c0,0.159,0.085,0.305,0.222,0.385c0.069,0.04,0.145,0.06,0.222,0.06c0.077,0,0.153-0.02,0.222-0.06l3.082-1.779
		c0.137-0.079,0.222-0.226,0.222-0.385C14.049,10.228,13.964,10.082,13.827,10.003z"/>
</g>
</svg>
