<?xml version="1.0" ?><svg id="Layer_1" style="enable-background:new 0 0 137.3 139.3;" version="1.1" viewBox="0 0 137.3 139.3" xml:space="preserve" xmlns="http://www.w3.org/2000/svg" xmlns:xlink="http://www.w3.org/1999/xlink"><style type="text/css">
	.st0{opacity:0.7;fill:#D3D3D3;}
	.st1{fill:#EDEDEF;}
	.st2{fill:#2C8AAA;}
	.st3{opacity:0.19;clip-path:url(#XMLID_40_);fill:#070808;}
	.st4{fill:#22728E;}
	.st5{fill:#215C6D;}
	.st6{fill:#33A0DA;}
	.st7{fill:#2995C4;}
	.st8{fill:#FFFFFF;}
	.st9{fill:#D1EBFA;}
</style><g id="XMLID_33_"><g id="XMLID_154_"><path class="st0" d="M63.3,87.2c0-1.4-1.1-2.5-2.5-2.5c-1.4,0-2.5,1.1-2.5,2.5c0,1.4,2.5,16.9,2.5,16.9    S63.3,88.6,63.3,87.2z" id="XMLID_157_"/><path class="st0" d="M71,102.6c0-1.4-1.1-2.5-2.5-2.5c-1.4,0-2.5,1.1-2.5,2.5c0,1.4,2.5,16.9,2.5,16.9    S71,104,71,102.6z" id="XMLID_156_"/><path class="st0" d="M79.1,89.7c0-1.4-1.1-2.5-2.5-2.5c-1.4,0-2.5,1.1-2.5,2.5c0,1.4,2.5,16.9,2.5,16.9    S79.1,91.1,79.1,89.7z" id="XMLID_155_"/></g><rect class="st1" height="6.6" id="XMLID_153_" width="20.1" x="58.6" y="76.6"/><circle class="st2" cx="68.5" cy="69.6" id="XMLID_151_" r="66.2"/><g id="XMLID_148_"><defs><circle cx="68.7" cy="69.6" id="XMLID_149_" r="66.2"/></defs><clipPath id="XMLID_40_"><use style="overflow:visible;" xlink:href="#XMLID_149_"/></clipPath><polygon class="st3" id="XMLID_150_" points="96.7,36.9 134.8,74.1 134,135.8 89.2,133.9 44.1,89.6   "/></g><g id="XMLID_134_"><path class="st4" d="M53.9,79.8c6.6,6.6,8.1,16.3,4.6,24.3c2.4-1.1,4.7-2.6,6.7-4.6c8.6-8.6,8.6-22.4,0-31    c-8.6-8.6-22.4-8.6-31,0c-2,2-3.5,4.3-4.6,6.7C37.7,71.7,47.4,73.3,53.9,79.8z" id="XMLID_147_"/><path class="st5" d="M68.6,73L57.4,84.3c3.5,6.1,3.9,13.5,1.1,19.8c2.4-1.1,4.7-2.6,6.7-4.6    C72.4,92.3,73.5,81.4,68.6,73z" id="XMLID_146_"/><path class="st6" d="M51.9,81.8c1.9,1.9,3.4,4,4.6,6.3c7.7-2.6,16-7.8,23.3-15.1c11.6-11.6,17.7-25.5,17-36.1    c-10.6-0.8-24.5,5.4-36.1,17c-7.3,7.3-12.4,15.5-15.1,23.3C47.9,78.4,50,79.9,51.9,81.8z" id="XMLID_145_"/><path class="st7" d="M96.8,37c0,0-0.1,0-0.1,0L51.9,81.8c0,0,0,0,0.1,0.1c1.9,1.9,3.4,4,4.6,6.3    c7.7-2.6,16-7.8,23.3-15.1C91.4,61.5,97.6,47.6,96.8,37z" id="XMLID_144_"/><path class="st4" d="M85.8,47.9c2.4,2.4,4.7,4.8,6.8,7.3c3.1-6.5,4.5-12.8,4.2-18.3C91.3,36.6,85,38,78.5,41.1    C81,43.3,83.4,45.5,85.8,47.9z" id="XMLID_143_"/><path class="st5" d="M96.7,36.9L85.8,47.9c0,0,0,0,0.1,0.1c2.4,2.4,4.7,4.8,6.8,7.3c3.1-6.5,4.5-12.8,4.2-18.3    C96.8,36.9,96.7,36.9,96.7,36.9z" id="XMLID_142_"/><path class="st4" d="M66.1,67.6c-3.3,0.8-8.3,4.2-13.1,9c-4.8,4.8-8.2,9.8-9,13.1c3.3-0.8,8.3-4.2,13.1-9    C62,75.9,65.3,70.9,66.1,67.6z" id="XMLID_141_"/><path class="st5" d="M66,67.7L44.1,89.6c0,0.1,0,0.1,0,0.2c3.3-0.8,8.3-4.2,13.1-9c4.8-4.8,8.2-9.8,9-13.1    C66.1,67.6,66,67.6,66,67.7z" id="XMLID_140_"/><path class="st4" d="M70.2,63.5c-3-3-3-7.8,0-10.8c3-3,7.8-3,10.8,0c3,3,3,7.8,0,10.8    C78,66.5,73.2,66.5,70.2,63.5L70.2,63.5z" id="XMLID_139_"/><path class="st8" d="M79.4,54.4c-2.1-2.1-5.4-2.1-7.5,0c-2.1,2.1-2.1,5.4,0,7.5c2.1,2.1,5.4,2.1,7.5,0    C81.4,59.8,81.4,56.5,79.4,54.4L79.4,54.4z" id="XMLID_138_"/><g id="XMLID_135_"><path class="st5" d="M81,52.8C81,52.7,81,52.7,81,52.8l-1.7,1.6c0,0,0,0,0.1,0.1c2.1,2.1,2.1,5.4,0,7.5     c-2.1,2.1-5.4,2.1-7.5,0c0,0,0,0-0.1-0.1l-1.6,1.6c0,0,0,0,0.1,0.1c3,3,7.8,3,10.8,0C84,60.5,84,55.7,81,52.8z" id="XMLID_137_"/><path class="st9" d="M79.4,61.9c2.1-2.1,2.1-5.4,0-7.5c0,0,0,0-0.1-0.1l-7.5,7.5c0,0,0,0,0.1,0.1     C73.9,63.9,77.3,63.9,79.4,61.9z" id="XMLID_136_"/></g></g></g></svg>