<svg width="24" height="24" viewBox="0 0 24 24" fill="none" xmlns="http://www.w3.org/2000/svg">
<path d="M0 4.13575C0 3.23201 0.732625 2.49939 1.63636 2.49939H22.3636C23.2674 2.49939 24 3.23201 24 4.13575C24 5.03949 23.2674 5.77212 22.3636 5.77212H1.63636C0.732625 5.77212 0 5.03949 0 4.13575Z" fill="#2e2d29"/>
<path d="M0 19.4085C0 18.5047 0.732625 17.7721 1.63636 17.7721H22.3636C23.2674 17.7721 24 18.5047 24 19.4085C24 20.3122 23.2674 21.0448 22.3636 21.0448H1.63636C0.732625 21.0448 0 20.3122 0 19.4085Z" fill="#2e2d29"/>
<path d="M0 11.7721C0 10.8684 0.732625 10.1357 1.63636 10.1357H22.3636C23.2674 10.1357 24 10.8684 24 11.7721C24 12.6758 23.2674 13.4085 22.3636 13.4085H1.63636C0.732625 13.4085 0 12.6758 0 11.7721Z" fill="#2e2d29"/>
</svg>
