<?xml version="1.0" encoding="utf-8"?>
<!-- Generator: Adobe Illustrator 16.0.4, SVG Export Plug-In . SVG Version: 6.00 Build 0)  -->
<!DOCTYPE svg PUBLIC "-//W3C//DTD SVG 1.1//EN" "http://www.w3.org/Graphics/SVG/1.1/DTD/svg11.dtd">
<svg version="1.1" id="Layer_1" xmlns="http://www.w3.org/2000/svg" xmlns:xlink="http://www.w3.org/1999/xlink" x="0px" y="0px"
	 width="512px" height="512px" viewBox="0 0 512 512" enable-background="new 0 0 512 512" xml:space="preserve">
<path fill="#B1040E" d="M506.884,137.484l-25.649-25.643c-3.418-3.425-7.354-5.132-11.806-5.132c-4.438,0-8.374,1.707-11.793,5.132
	L256.001,313.458L54.381,111.841c-3.419-3.423-7.355-5.13-11.801-5.13c-4.447,0-8.382,1.707-11.8,5.132L5.132,137.495
	C1.707,140.911,0,144.846,0,149.293c0,4.444,1.712,8.379,5.132,11.797l239.072,239.076c3.414,3.419,7.353,5.128,11.799,5.128
	c4.445,0,8.374-1.707,11.791-5.128l239.09-239.076c3.418-3.42,5.116-7.355,5.116-11.797c0-4.448-1.7-8.383-5.117-11.806
	L506.884,137.484z"/>
</svg>
