<?xml version="1.0" encoding="utf-8"?>
<!-- Generator: Adobe Illustrator 16.0.4, SVG Export Plug-In . SVG Version: 6.00 Build 0)  -->
<!DOCTYPE svg PUBLIC "-//W3C//DTD SVG 1.1//EN" "http://www.w3.org/Graphics/SVG/1.1/DTD/svg11.dtd">
<svg version="1.1" id="Layer_1" xmlns="http://www.w3.org/2000/svg" xmlns:xlink="http://www.w3.org/1999/xlink" x="0px" y="0px"
	 width="511.625px" height="511.627px" viewBox="0 0 511.625 511.627" enable-background="new 0 0 511.625 511.627"
	 xml:space="preserve">
<g>
	<path fill="#B1040E" d="M392.857,292.354h-18.274c-2.67,0-4.859,0.854-6.562,2.572c-1.718,1.708-2.572,3.897-2.572,6.563v91.359
		c0,12.564-4.471,23.316-13.416,32.264c-8.945,8.944-19.699,13.414-32.264,13.414H82.224c-12.562,0-23.317-4.471-32.264-13.414
		c-8.945-8.946-13.417-19.698-13.417-32.263V155.31c0-12.562,4.47-23.313,13.417-32.26c8.947-8.946,19.702-13.417,32.264-13.417
		h200.993c2.671,0,4.861-0.86,6.57-2.57c1.711-1.713,2.566-3.9,2.566-6.567V82.22c0-2.66-0.855-4.852-2.566-6.562
		c-1.709-1.713-3.899-2.568-6.57-2.568H82.224c-22.648,0-42.016,8.042-58.102,24.125C8.042,113.297,0,132.665,0,155.313v237.542
		c0,22.646,8.042,42.018,24.123,58.095c16.086,16.084,35.454,24.13,58.102,24.13h237.543c22.646,0,42.018-8.046,58.1-24.13
		c16.086-16.077,24.129-35.447,24.129-58.095v-91.358c0-2.67-0.857-4.859-2.574-6.57
		C397.709,293.209,395.519,292.354,392.857,292.354z"/>
	<path fill="#B1040E" d="M506.2,41.97c-3.617-3.616-7.906-5.423-12.85-5.423H347.17c-4.947,0-9.232,1.807-12.846,5.424
		c-3.617,3.616-5.429,7.9-5.429,12.848c0,4.948,1.81,9.233,5.429,12.85l50.246,50.248l-186.146,186.15
		c-1.906,1.904-2.856,4.094-2.856,6.563c0,2.48,0.953,4.668,2.856,6.57l32.548,32.545c1.903,1.903,4.093,2.852,6.567,2.852
		s4.664-0.947,6.566-2.852l186.148-186.148l50.25,50.248c3.615,3.617,7.9,5.426,12.848,5.426s9.232-1.808,12.85-5.425
		c3.619-3.616,5.426-7.898,5.426-12.847V54.818c0-4.952-1.814-9.232-5.428-12.847V41.97z"/>
</g>
</svg>
