<?xml version="1.0" encoding="utf-8"?>
<!-- Generator: Adobe Illustrator 16.0.4, SVG Export Plug-In . SVG Version: 6.00 Build 0)  -->
<!DOCTYPE svg PUBLIC "-//W3C//DTD SVG 1.1//EN" "http://www.w3.org/Graphics/SVG/1.1/DTD/svg11.dtd">
<svg version="1.1" id="Layer_1" xmlns="http://www.w3.org/2000/svg" xmlns:xlink="http://www.w3.org/1999/xlink" x="0px" y="0px"
	 width="401.992px" height="401.992px" viewBox="0 0 401.992 401.992" enable-background="new 0 0 401.992 401.992"
	 xml:space="preserve">
<path fill="#FFFFFF" d="M394,154.174c-5.33-5.33-11.806-7.995-19.416-7.995H27.406c-7.61,0-14.084,2.66-19.414,7.99
	C2.662,159.5,0,165.97,0,173.586v54.82c0,7.617,2.662,14.086,7.992,19.41c5.33,5.332,11.803,7.994,19.414,7.994h347.176
	c7.61,0,14.086-2.66,19.418-7.993c5.32-5.323,7.99-11.793,7.99-19.409v-54.821C401.99,165.972,399.33,159.5,394,154.174L394,154.174
	z"/>
</svg>
