<?xml version="1.0" encoding="utf-8"?>
<!-- Generator: Adobe Illustrator 16.0.4, SVG Export Plug-In . SVG Version: 6.00 Build 0)  -->
<!DOCTYPE svg PUBLIC "-//W3C//DTD SVG 1.1//EN" "http://www.w3.org/Graphics/SVG/1.1/DTD/svg11.dtd">
<svg version="1.1" id="Layer_1" xmlns="http://www.w3.org/2000/svg" xmlns:xlink="http://www.w3.org/1999/xlink" x="0px" y="0px"
	 width="401.994px" height="401.994px" viewBox="0 0 401.994 401.994" enable-background="new 0 0 401.994 401.994"
	 xml:space="preserve">
<path fill="#FFFFFF" d="M394,154.175c-5.33-5.33-11.806-7.994-19.417-7.994H255.81V27.41c0-7.61-2.664-14.084-7.992-19.414
	C242.487,2.666,236.021,0,228.397,0h-54.811c-7.613,0-14.085,2.663-19.415,7.993s-7.994,11.803-7.994,19.414v118.775H27.408
	c-7.612,0-14.085,2.664-19.415,7.994C2.663,159.506,0,165.973,0,173.59v54.818c0,7.618,2.662,14.086,7.992,19.409
	c5.33,5.334,11.803,7.996,19.414,7.996h118.77V374.59c0,7.61,2.665,14.09,7.995,19.417c5.33,5.325,11.806,7.987,19.418,7.987h54.811
	c7.619,0,14.088-2.662,19.418-7.987c5.332-5.33,7.994-11.806,7.994-19.417V255.813h118.771c7.618,0,14.09-2.662,19.417-7.994
	c5.325-5.33,7.99-11.797,7.99-19.416v-54.819c0-7.615-2.66-14.086-7.993-19.413L394,154.175z"/>
</svg>
